<?xml version="1.0" encoding="UTF-8" standalone="no"?><!DOCTYPE svg PUBLIC "-//W3C//DTD SVG 1.1//EN" "http://www.w3.org/Graphics/SVG/1.1/DTD/svg11.dtd"><!-- Generated by graphviz version 2.40.1 (20161225.0304)
 --><!-- Title: prereqs Pages: 1 --><svg xmlns="http://www.w3.org/2000/svg" xmlns:xlink="http://www.w3.org/1999/xlink" width="2183pt" height="2573pt" viewBox="0.00 0.00 2182.80 2573.13">
<g id="graph0" class="graph" transform="scale(1 1) rotate(0) translate(4 2569.131)">
<title>prereqs</title>
<polygon fill="#ffffff" stroke="transparent" points="-4,4 -4,-2569.131 2178.8006,-2569.131 2178.8006,4 -4,4"/>
<g id="clust1" class="cluster">
<title>cluster_n373_n455</title>
<polygon fill="none" stroke="#000000" points="462.5026,-8 462.5026,-1979.457 800.5026,-1979.457 800.5026,-8 462.5026,-8"/>
</g>
<!-- refresher -->
<g id="node1" class="node">
<title>refresher</title>
<ellipse fill="none" stroke="#000000" cx="540.5026" cy="-2547.131" rx="45.1804" ry="18"/>
<text text-anchor="middle" x="540.5026" y="-2542.931" font-family="Times,serif" font-size="14.00" fill="#000000">refresher</text>
</g>
<!-- n120 -->
<g id="node2" class="node">
<title>n120</title>
<ellipse fill="none" stroke="#000000" cx="540.5026" cy="-2463.7153" rx="144.7526" ry="29.3315"/>
<text text-anchor="middle" x="540.5026" y="-2467.9153" font-family="Times,serif" font-size="14.00" fill="#000000">21-120</text>
<text text-anchor="middle" x="540.5026" y="-2451.1153" font-family="Times,serif" font-size="14.00" fill="#000000">Differential and Integral Calculus</text>
</g>
<!-- refresher&#45;&gt;n120 -->
<g id="edge1" class="edge">
<title>refresher-&gt;n120</title>
<path fill="none" stroke="#000000" d="M540.5026,-2529.031C540.5026,-2521.4415 540.5026,-2512.2969 540.5026,-2503.2857"/>
<polygon fill="#000000" stroke="#000000" points="544.0027,-2503.2584 540.5026,-2493.2585 537.0027,-2503.2585 544.0027,-2503.2584"/>
</g>
<!-- n122 -->
<g id="node3" class="node">
<title>n122</title>
<ellipse fill="none" stroke="#000000" cx="408.5026" cy="-2357.0046" rx="134.4566" ry="29.3315"/>
<text text-anchor="middle" x="408.5026" y="-2361.2046" font-family="Times,serif" font-size="14.00" fill="#000000">21-122</text>
<text text-anchor="middle" x="408.5026" y="-2344.4046" font-family="Times,serif" font-size="14.00" fill="#000000">Integration and Approximation</text>
</g>
<!-- n120&#45;&gt;n122 -->
<g id="edge2" class="edge">
<title>n120-&gt;n122</title>
<path fill="none" stroke="#000000" d="M505.1291,-2435.1188C488.8533,-2421.9613 469.3848,-2406.2226 452.2016,-2392.3315"/>
<polygon fill="#000000" stroke="#000000" points="453.9509,-2389.245 443.9739,-2385.6801 449.5502,-2394.6887 453.9509,-2389.245"/>
</g>
<!-- n127 -->
<g id="node4" class="node">
<title>n127</title>
<ellipse fill="none" stroke="#000000" cx="673.5026" cy="-2357.0046" rx="112.4612" ry="41.0911"/>
<text text-anchor="middle" x="673.5026" y="-2369.6046" font-family="Times,serif" font-size="14.00" fill="#000000">21-127</text>
<text text-anchor="middle" x="673.5026" y="-2352.8046" font-family="Times,serif" font-size="14.00" fill="#000000">Concepts of Mathematics</text>
<text text-anchor="middle" x="673.5026" y="-2336.0046" font-family="Times,serif" font-size="14.00" fill="#000000">(proofs)</text>
</g>
<!-- n120&#45;&gt;n127 -->
<g id="edge3" class="edge">
<title>n120-&gt;n127</title>
<path fill="none" stroke="#000000" d="M576.1442,-2435.1188C589.1288,-2424.7008 604.1302,-2412.6646 618.4085,-2401.2087"/>
<polygon fill="#000000" stroke="#000000" points="620.6396,-2403.9059 626.249,-2394.9179 616.2589,-2398.4461 620.6396,-2403.9059"/>
</g>
<!-- n301 -->
<g id="node17" class="node">
<title>n301</title>
<ellipse fill="none" stroke="#000000" cx="632.5026" cy="-2143.5833" rx="69.706" ry="29.3315"/>
<text text-anchor="middle" x="632.5026" y="-2147.7833" font-family="Times,serif" font-size="14.00" fill="#000000">21-301</text>
<text text-anchor="middle" x="632.5026" y="-2130.9833" font-family="Times,serif" font-size="14.00" fill="#000000">Combinatorics</text>
</g>
<!-- n122&#45;&gt;n301 -->
<g id="edge16" class="edge">
<title>n122-&gt;n301</title>
<path fill="none" stroke="#000000" d="M388.0966,-2327.7035C370.1051,-2297.9039 350.2179,-2251.8279 374.5026,-2220.8783 416.025,-2167.9601 457.2066,-2204.6383 521.5026,-2184.8783 538.1786,-2179.7533 555.9938,-2173.4893 572.3614,-2167.4042"/>
<polygon fill="#000000" stroke="#000000" points="573.6824,-2170.6469 581.8114,-2163.8521 571.2194,-2164.0945 573.6824,-2170.6469"/>
</g>
<!-- n620 -->
<g id="node26" class="node">
<title>n620</title>
<ellipse fill="none" stroke="#000000" cx="450.5026" cy="-2250.294" rx="66.6455" ry="29.3315"/>
<text text-anchor="middle" x="450.5026" y="-2254.494" font-family="Times,serif" font-size="14.00" fill="#000000">21-620</text>
<text text-anchor="middle" x="450.5026" y="-2237.694" font-family="Times,serif" font-size="14.00" fill="#000000">Real Analysis</text>
</g>
<!-- n122&#45;&gt;n620 -->
<g id="edge29" class="edge">
<title>n122-&gt;n620</title>
<path fill="none" stroke="#000000" d="M420.0905,-2327.563C424.7729,-2315.6663 430.2424,-2301.7697 435.2419,-2289.0674"/>
<polygon fill="#000000" stroke="#000000" points="438.5469,-2290.2266 438.9526,-2279.6395 432.0333,-2287.6629 438.5469,-2290.2266"/>
</g>
<!-- n228 -->
<g id="node5" class="node">
<title>n228</title>
<ellipse fill="none" stroke="#000000" cx="632.5026" cy="-2250.294" rx="97.7935" ry="29.3315"/>
<text text-anchor="middle" x="632.5026" y="-2254.494" font-family="Times,serif" font-size="14.00" fill="#000000">21-228</text>
<text text-anchor="middle" x="632.5026" y="-2237.694" font-family="Times,serif" font-size="14.00" fill="#000000">Discrete Mathematics</text>
</g>
<!-- n127&#45;&gt;n228 -->
<g id="edge4" class="edge">
<title>n127-&gt;n228</title>
<path fill="none" stroke="#000000" d="M657.7682,-2316.0527C654.3883,-2307.2557 650.8253,-2297.9824 647.4752,-2289.2632"/>
<polygon fill="#000000" stroke="#000000" points="650.6582,-2287.7885 643.8044,-2279.7091 644.1239,-2290.2991 650.6582,-2287.7885"/>
</g>
<!-- n242 -->
<g id="node8" class="node">
<title>n242</title>
<ellipse fill="none" stroke="#000000" cx="945.5026" cy="-2250.294" rx="69.1341" ry="29.3315"/>
<text text-anchor="middle" x="945.5026" y="-2254.494" font-family="Times,serif" font-size="14.00" fill="#000000">21-142</text>
<text text-anchor="middle" x="945.5026" y="-2237.694" font-family="Times,serif" font-size="14.00" fill="#000000">Matrix Theory</text>
</g>
<!-- n127&#45;&gt;n242 -->
<g id="edge7" class="edge">
<title>n127-&gt;n242</title>
<path fill="none" stroke="#000000" d="M750.7194,-2326.7111C793.2328,-2310.0323 845.2361,-2289.6304 884.8127,-2274.1038"/>
<polygon fill="#000000" stroke="#000000" points="886.3056,-2277.2779 894.3365,-2270.3674 883.749,-2270.7614 886.3056,-2277.2779"/>
</g>
<!-- n329 -->
<g id="node12" class="node">
<title>n329</title>
<ellipse fill="none" stroke="#000000" cx="803.5026" cy="-2250.294" rx="55.0479" ry="29.3315"/>
<text text-anchor="middle" x="803.5026" y="-2254.494" font-family="Times,serif" font-size="14.00" fill="#000000">21-329</text>
<text text-anchor="middle" x="803.5026" y="-2237.694" font-family="Times,serif" font-size="14.00" fill="#000000">Set Theory</text>
</g>
<!-- n127&#45;&gt;n329 -->
<g id="edge11" class="edge">
<title>n127-&gt;n329</title>
<path fill="none" stroke="#000000" d="M719.7018,-2319.082C734.5874,-2306.8631 750.9124,-2293.4627 765.1675,-2281.7614"/>
<polygon fill="#000000" stroke="#000000" points="767.7862,-2284.14 773.295,-2275.0899 763.3449,-2278.7294 767.7862,-2284.14"/>
</g>
<!-- n127&#45;&gt;n620 -->
<g id="edge28" class="edge">
<title>n127-&gt;n620</title>
<path fill="none" stroke="#000000" d="M604.7757,-2324.1172C572.6502,-2308.7444 534.941,-2290.6997 504.8461,-2276.2986"/>
<polygon fill="#000000" stroke="#000000" points="506.2966,-2273.1126 495.7654,-2271.9532 503.275,-2279.4269 506.2966,-2273.1126"/>
</g>
<!-- n300 -->
<g id="node6" class="node">
<title>n300</title>
<ellipse fill="none" stroke="#000000" cx="453.5026" cy="-2143.5833" rx="58.746" ry="29.3315"/>
<text text-anchor="middle" x="453.5026" y="-2147.7833" font-family="Times,serif" font-size="14.00" fill="#000000">21-300</text>
<text text-anchor="middle" x="453.5026" y="-2130.9833" font-family="Times,serif" font-size="14.00" fill="#000000">Basic Logic</text>
</g>
<!-- n228&#45;&gt;n300 -->
<g id="edge5" class="edge">
<title>n228-&gt;n300</title>
<path fill="none" stroke="#000000" d="M588.2554,-2223.916C561.5602,-2208.0017 527.576,-2187.7421 500.4152,-2171.5502"/>
<polygon fill="#000000" stroke="#000000" points="501.8679,-2168.3415 491.4862,-2166.2271 498.2834,-2174.3541 501.8679,-2168.3415"/>
</g>
<!-- n228&#45;&gt;n301 -->
<g id="edge17" class="edge">
<title>n228-&gt;n301</title>
<path fill="none" stroke="#000000" d="M632.5026,-2220.8523C632.5026,-2209.2853 632.5026,-2195.8276 632.5026,-2183.4153"/>
<polygon fill="#000000" stroke="#000000" points="636.0027,-2183.2993 632.5026,-2173.2993 629.0027,-2183.2993 636.0027,-2183.2993"/>
</g>
<!-- n484 -->
<g id="node25" class="node">
<title>n484</title>
<ellipse fill="none" stroke="#000000" cx="803.5026" cy="-2143.5833" rx="67.2226" ry="29.3315"/>
<text text-anchor="middle" x="803.5026" y="-2147.7833" font-family="Times,serif" font-size="14.00" fill="#000000">21-484</text>
<text text-anchor="middle" x="803.5026" y="-2130.9833" font-family="Times,serif" font-size="14.00" fill="#000000">Graph Theory</text>
</g>
<!-- n228&#45;&gt;n484 -->
<g id="edge26" class="edge">
<title>n228-&gt;n484</title>
<path fill="none" stroke="#000000" d="M675.2121,-2223.6416C699.8124,-2208.29 730.7805,-2188.9648 756.1273,-2173.1474"/>
<polygon fill="#000000" stroke="#000000" points="758.2079,-2175.9746 764.8386,-2167.7111 754.502,-2170.036 758.2079,-2175.9746"/>
</g>
<!-- n302 -->
<g id="node7" class="node">
<title>n302</title>
<ellipse fill="none" stroke="#000000" cx="421.5026" cy="-2036.8726" rx="80.7353" ry="29.3315"/>
<text text-anchor="middle" x="421.5026" y="-2041.0726" font-family="Times,serif" font-size="14.00" fill="#000000">21-302</text>
<text text-anchor="middle" x="421.5026" y="-2024.2726" font-family="Times,serif" font-size="14.00" fill="#000000">Lambda Calculus</text>
</g>
<!-- n300&#45;&gt;n302 -->
<g id="edge6" class="edge">
<title>n300-&gt;n302</title>
<path fill="none" stroke="#000000" d="M444.7585,-2114.4241C441.2249,-2102.6406 437.0923,-2088.8594 433.2989,-2076.2097"/>
<polygon fill="#000000" stroke="#000000" points="436.5724,-2074.9405 430.3474,-2066.3673 429.8673,-2076.9513 436.5724,-2074.9405"/>
</g>
<!-- n400 -->
<g id="node22" class="node">
<title>n400</title>
<ellipse fill="none" stroke="#000000" cx="235.5026" cy="-2036.8726" rx="86.8067" ry="29.3315"/>
<text text-anchor="middle" x="235.5026" y="-2041.0726" font-family="Times,serif" font-size="14.00" fill="#000000">21-400</text>
<text text-anchor="middle" x="235.5026" y="-2024.2726" font-family="Times,serif" font-size="14.00" fill="#000000">Intermediate Logic</text>
</g>
<!-- n300&#45;&gt;n400 -->
<g id="edge23" class="edge">
<title>n300-&gt;n400</title>
<path fill="none" stroke="#000000" d="M417.3181,-2120.3736C407.1807,-2114.2125 396.0468,-2107.7575 385.5026,-2102.2883 358.5493,-2088.3075 327.9574,-2074.5988 301.4628,-2063.3718"/>
<polygon fill="#000000" stroke="#000000" points="302.4762,-2060.0012 291.9013,-2059.3519 299.7632,-2066.4541 302.4762,-2060.0012"/>
</g>
<!-- n269 -->
<g id="node9" class="node">
<title>n269</title>
<ellipse fill="none" stroke="#000000" cx="1111.5026" cy="-2143.5833" rx="105.7188" ry="41.0911"/>
<text text-anchor="middle" x="1111.5026" y="-2156.1833" font-family="Times,serif" font-size="14.00" fill="#000000">21-269</text>
<text text-anchor="middle" x="1111.5026" y="-2139.3833" font-family="Times,serif" font-size="14.00" fill="#000000">Vector Analysis</text>
<text text-anchor="middle" x="1111.5026" y="-2122.5833" font-family="Times,serif" font-size="14.00" fill="#000000">(multidimensional calc)</text>
</g>
<!-- n242&#45;&gt;n269 -->
<g id="edge8" class="edge">
<title>n242-&gt;n269</title>
<path fill="none" stroke="#000000" d="M984.0036,-2225.5442C1003.0282,-2213.3145 1026.4811,-2198.2381 1048.0631,-2184.3645"/>
<polygon fill="#000000" stroke="#000000" points="1050.0248,-2187.2643 1056.544,-2178.9126 1046.2395,-2181.376 1050.0248,-2187.2643"/>
</g>
<!-- n373 -->
<g id="node13" class="node">
<title>n373</title>
<ellipse fill="none" stroke="#000000" cx="613.5026" cy="-2036.8726" rx="92.8998" ry="29.3315"/>
<text text-anchor="middle" x="613.5026" y="-2041.0726" font-family="Times,serif" font-size="14.00" fill="#000000">21-373</text>
<text text-anchor="middle" x="613.5026" y="-2024.2726" font-family="Times,serif" font-size="14.00" fill="#000000">Algebraic Structures</text>
</g>
<!-- n242&#45;&gt;n373 -->
<g id="edge12" class="edge">
<title>n242-&gt;n373</title>
<path fill="none" stroke="#000000" d="M940.5225,-2220.7366C933.2188,-2186.8795 916.2539,-2132.2337 879.5026,-2102.2883 821.6512,-2055.1501 787.836,-2084.6369 715.5026,-2066.2883 707.5419,-2064.2689 699.2619,-2062.0612 691.0151,-2059.792"/>
<polygon fill="#000000" stroke="#000000" points="691.9427,-2056.4172 681.3703,-2057.1074 690.0656,-2063.1608 691.9427,-2056.4172"/>
</g>
<!-- n380 -->
<g id="node21" class="node">
<title>n380</title>
<ellipse fill="none" stroke="#000000" cx="2006.5026" cy="-1942.0413" rx="168.0961" ry="29.3315"/>
<text text-anchor="middle" x="2006.5026" y="-1946.2413" font-family="Times,serif" font-size="14.00" fill="#000000">21-380</text>
<text text-anchor="middle" x="2006.5026" y="-1929.4413" font-family="Times,serif" font-size="14.00" fill="#000000">Introduction to Mathematical Modeling</text>
</g>
<!-- n242&#45;&gt;n380 -->
<g id="edge21" class="edge">
<title>n242-&gt;n380</title>
<path fill="none" stroke="#000000" d="M1012.5241,-2242.295C1200.5887,-2219.0474 1729.4762,-2147.9405 1882.5026,-2066.2883 1921.7793,-2045.3309 1956.6075,-2007.8347 1979.275,-1979.4986"/>
<polygon fill="#000000" stroke="#000000" points="1982.2091,-1981.4289 1985.6248,-1971.3997 1976.7004,-1977.1098 1982.2091,-1981.4289"/>
</g>
<!-- n242&#45;&gt;n484 -->
<g id="edge27" class="edge">
<title>n242-&gt;n484</title>
<path fill="none" stroke="#000000" d="M911.1284,-2224.4623C891.4188,-2209.6508 866.5237,-2190.9426 845.6422,-2175.2505"/>
<polygon fill="#000000" stroke="#000000" points="847.6573,-2172.3867 837.5603,-2169.1771 843.452,-2177.9827 847.6573,-2172.3867"/>
</g>
<!-- n261 -->
<g id="node10" class="node">
<title>n261</title>
<ellipse fill="none" stroke="#000000" cx="1545.5026" cy="-2036.8726" rx="199.1935" ry="29.3315"/>
<text text-anchor="middle" x="1545.5026" y="-2041.0726" font-family="Times,serif" font-size="14.00" fill="#000000">21-261</text>
<text text-anchor="middle" x="1545.5026" y="-2024.2726" font-family="Times,serif" font-size="14.00" fill="#000000">Introduction to Ordinary Differential Equations</text>
</g>
<!-- n269&#45;&gt;n261 -->
<g id="edge9" class="edge">
<title>n269-&gt;n261</title>
<path fill="none" stroke="#000000" d="M1201.1645,-2121.5375C1268.2531,-2105.0419 1360.4702,-2082.3679 1432.5884,-2064.6356"/>
<polygon fill="#000000" stroke="#000000" points="1433.7515,-2067.954 1442.6265,-2062.1675 1432.08,-2061.1565 1433.7515,-2067.954"/>
</g>
<!-- n325 -->
<g id="node11" class="node">
<title>n325</title>
<ellipse fill="none" stroke="#000000" cx="1818.5026" cy="-2036.8726" rx="55.1207" ry="29.3315"/>
<text text-anchor="middle" x="1818.5026" y="-2041.0726" font-family="Times,serif" font-size="14.00" fill="#000000">21-325</text>
<text text-anchor="middle" x="1818.5026" y="-2024.2726" font-family="Times,serif" font-size="14.00" fill="#000000">Probability</text>
</g>
<!-- n269&#45;&gt;n325 -->
<g id="edge10" class="edge">
<title>n269-&gt;n325</title>
<path fill="none" stroke="#000000" d="M1214.8423,-2134.9984C1369.7965,-2121.4718 1654.7043,-2093.8865 1753.5026,-2066.2883 1758.5187,-2064.8871 1763.6406,-2063.1526 1768.6981,-2061.2322"/>
<polygon fill="#000000" stroke="#000000" points="1770.3419,-2064.3428 1778.3,-2057.3486 1767.7172,-2057.8535 1770.3419,-2064.3428"/>
</g>
<!-- n455 -->
<g id="node15" class="node">
<title>n455</title>
<ellipse fill="none" stroke="#000000" cx="1111.5026" cy="-2036.8726" rx="124.6805" ry="29.3315"/>
<text text-anchor="middle" x="1111.5026" y="-2041.0726" font-family="Times,serif" font-size="14.00" fill="#000000">21-455</text>
<text text-anchor="middle" x="1111.5026" y="-2024.2726" font-family="Times,serif" font-size="14.00" fill="#000000">Intermediate Real Analysis I</text>
</g>
<!-- n269&#45;&gt;n455 -->
<g id="edge14" class="edge">
<title>n269-&gt;n455</title>
<path fill="none" stroke="#000000" d="M1111.5026,-2102.0206C1111.5026,-2093.7088 1111.5026,-2084.9952 1111.5026,-2076.7422"/>
<polygon fill="#000000" stroke="#000000" points="1115.0027,-2076.5997 1111.5026,-2066.5997 1108.0027,-2076.5997 1115.0027,-2076.5997"/>
</g>
<!-- n737 -->
<g id="node53" class="node">
<title>n737</title>
<ellipse fill="none" stroke="#000000" cx="846.5026" cy="-2036.8726" rx="122.2396" ry="29.3315"/>
<text text-anchor="middle" x="846.5026" y="-2041.0726" font-family="Times,serif" font-size="14.00" fill="#000000">21-737</text>
<text text-anchor="middle" x="846.5026" y="-2024.2726" font-family="Times,serif" font-size="14.00" fill="#000000">Probabilistic Combinatorics</text>
</g>
<!-- n269&#45;&gt;n737 -->
<g id="edge58" class="edge">
<title>n269-&gt;n737</title>
<path fill="none" stroke="#000000" d="M1037.6854,-2113.8584C1000.7117,-2098.9698 956.0982,-2081.0048 919.2708,-2066.175"/>
<polygon fill="#000000" stroke="#000000" points="920.179,-2062.7677 909.5954,-2062.2789 917.5642,-2069.261 920.179,-2062.7677"/>
</g>
<!-- n261&#45;&gt;n380 -->
<g id="edge22" class="edge">
<title>n261-&gt;n380</title>
<path fill="none" stroke="#000000" d="M1664.0375,-2013.1519C1714.9872,-2002.8931 1775.1924,-1990.6869 1829.5026,-1979.457 1848.8421,-1975.4581 1869.3591,-1971.1664 1889.3087,-1966.9671"/>
<polygon fill="#000000" stroke="#000000" points="1890.2997,-1970.3352 1899.3631,-1964.8484 1888.8563,-1963.4856 1890.2997,-1970.3352"/>
</g>
<!-- n476 -->
<g id="node24" class="node">
<title>n476</title>
<ellipse fill="none" stroke="#000000" cx="1668.5026" cy="-1942.0413" rx="151.6149" ry="29.3315"/>
<text text-anchor="middle" x="1668.5026" y="-1946.2413" font-family="Times,serif" font-size="14.00" fill="#000000">21-476</text>
<text text-anchor="middle" x="1668.5026" y="-1929.4413" font-family="Times,serif" font-size="14.00" fill="#000000">Introduction to Dynamical Systems</text>
</g>
<!-- n261&#45;&gt;n476 -->
<g id="edge25" class="edge">
<title>n261-&gt;n476</title>
<path fill="none" stroke="#000000" d="M1583.075,-2007.9048C1595.7123,-1998.1617 1609.9465,-1987.1873 1623.1193,-1977.0312"/>
<polygon fill="#000000" stroke="#000000" points="1625.3778,-1979.7094 1631.1603,-1970.8317 1621.1037,-1974.1658 1625.3778,-1979.7094"/>
</g>
<!-- n341 -->
<g id="node14" class="node">
<title>n341</title>
<ellipse fill="none" stroke="#000000" cx="71.5026" cy="-1942.0413" rx="71.5053" ry="29.3315"/>
<text text-anchor="middle" x="71.5026" y="-1946.2413" font-family="Times,serif" font-size="14.00" fill="#000000">21-341</text>
<text text-anchor="middle" x="71.5026" y="-1929.4413" font-family="Times,serif" font-size="14.00" fill="#000000">Linear Algebra</text>
</g>
<!-- n373&#45;&gt;n341 -->
<g id="edge13" class="edge">
<title>n373-&gt;n341</title>
<path fill="none" stroke="#000000" d="M548.125,-2015.8971C536.0488,-2012.6304 523.4717,-2009.625 511.5026,-2007.457 353.5892,-1978.8527 306.6928,-2020.3335 151.5026,-1979.457 142.2588,-1977.0222 132.7728,-1973.5543 123.7107,-1969.7008"/>
<polygon fill="#000000" stroke="#000000" points="125.0071,-1966.4468 114.4484,-1965.5727 122.1574,-1972.8405 125.0071,-1966.4468"/>
</g>
<!-- n374 -->
<g id="node20" class="node">
<title>n374</title>
<ellipse fill="none" stroke="#000000" cx="223.5026" cy="-1942.0413" rx="62.9503" ry="29.3315"/>
<text text-anchor="middle" x="223.5026" y="-1946.2413" font-family="Times,serif" font-size="14.00" fill="#000000">21-374</text>
<text text-anchor="middle" x="223.5026" y="-1929.4413" font-family="Times,serif" font-size="14.00" fill="#000000">Field Theory</text>
</g>
<!-- n373&#45;&gt;n374 -->
<g id="edge20" class="edge">
<title>n373-&gt;n374</title>
<path fill="none" stroke="#000000" d="M547.2032,-2016.1771C535.3904,-2012.9419 523.1415,-2009.875 511.5026,-2007.457 416.7232,-1987.7661 387.8647,-2008.4415 295.5026,-1979.457 287.4844,-1976.9407 279.2933,-1973.5654 271.4453,-1969.868"/>
<polygon fill="#000000" stroke="#000000" points="272.937,-1966.7012 262.4209,-1965.4118 269.8377,-1972.9777 272.937,-1966.7012"/>
</g>
<!-- n441 -->
<g id="node23" class="node">
<title>n441</title>
<ellipse fill="none" stroke="#000000" cx="379.5026" cy="-1942.0413" rx="74.6245" ry="29.3315"/>
<text text-anchor="middle" x="379.5026" y="-1946.2413" font-family="Times,serif" font-size="14.00" fill="#000000">21-441</text>
<text text-anchor="middle" x="379.5026" y="-1929.4413" font-family="Times,serif" font-size="14.00" fill="#000000">Number Theory</text>
</g>
<!-- n373&#45;&gt;n441 -->
<g id="edge24" class="edge">
<title>n373-&gt;n441</title>
<path fill="none" stroke="#000000" d="M550.7932,-2015.0567C522.3892,-2004.8145 488.5207,-1992.0966 458.5026,-1979.457 451.045,-1976.3168 443.2668,-1972.8616 435.6252,-1969.3587"/>
<polygon fill="#000000" stroke="#000000" points="436.9467,-1966.1136 426.4024,-1965.0804 434.001,-1972.4636 436.9467,-1966.1136"/>
</g>
<!-- n465 -->
<g id="node28" class="node">
<title>n465</title>
<ellipse fill="none" stroke="#000000" cx="669.5026" cy="-1942.0413" rx="49.6224" ry="29.3315"/>
<text text-anchor="middle" x="669.5026" y="-1946.2413" font-family="Times,serif" font-size="14.00" fill="#000000">21-465</text>
<text text-anchor="middle" x="669.5026" y="-1929.4413" font-family="Times,serif" font-size="14.00" fill="#000000">Topology</text>
</g>
<!-- n373&#45;&gt;n465 -->
<g id="edge52" class="edge">
<title>n373-&gt;n465</title>
<path fill="none" stroke="#000000" d="M630.6088,-2007.9048C634.2518,-2001.7357 638.1862,-1995.073 642.105,-1988.437"/>
<polygon fill="#000000" stroke="#000000" points="645.339,-1989.8436 647.4101,-1979.4532 639.3115,-1986.2842 645.339,-1989.8436"/>
</g>
<!-- n770 -->
<g id="node55" class="node">
<title>n770</title>
<ellipse fill="none" stroke="#000000" cx="972.5026" cy="-1847.21" rx="162.6155" ry="29.3315"/>
<text text-anchor="middle" x="972.5026" y="-1851.41" font-family="Times,serif" font-size="14.00" fill="#000000">21-770</text>
<text text-anchor="middle" x="972.5026" y="-1834.61" font-family="Times,serif" font-size="14.00" fill="#000000">Introduction to Continuum Mechanics</text>
</g>
<!-- n373&#45;&gt;n770 -->
<g id="edge61" class="edge">
<title>n373-&gt;n770</title>
<path fill="none" stroke="#000000" d="M681.9041,-2016.8174C735.6071,-2000.9928 801.7857,-1981.2824 804.5026,-1979.457 836.1998,-1958.1603 829.4454,-1937.4034 858.5026,-1912.6257 872.7865,-1900.4456 889.6624,-1889.3384 905.9894,-1879.8724"/>
<polygon fill="#000000" stroke="#000000" points="908.002,-1882.7552 914.9836,-1874.786 904.5562,-1876.6621 908.002,-1882.7552"/>
</g>
<!-- n456 -->
<g id="node16" class="node">
<title>n456</title>
<ellipse fill="none" stroke="#000000" cx="1370.5026" cy="-1942.0413" rx="128.2715" ry="29.3315"/>
<text text-anchor="middle" x="1370.5026" y="-1946.2413" font-family="Times,serif" font-size="14.00" fill="#000000">21-456</text>
<text text-anchor="middle" x="1370.5026" y="-1929.4413" font-family="Times,serif" font-size="14.00" fill="#000000">Intermediate Real Analysis II</text>
</g>
<!-- n455&#45;&gt;n456 -->
<g id="edge15" class="edge">
<title>n455-&gt;n456</title>
<path fill="none" stroke="#000000" d="M1179.2135,-2012.0807C1214.0229,-1999.3354 1256.6121,-1983.7416 1292.7609,-1970.506"/>
<polygon fill="#000000" stroke="#000000" points="1294.1005,-1973.7428 1302.2874,-1967.0179 1291.6937,-1967.1696 1294.1005,-1973.7428"/>
</g>
<!-- n371 -->
<g id="node19" class="node">
<title>n371</title>
<ellipse fill="none" stroke="#000000" cx="1054.5026" cy="-1942.0413" rx="169.5738" ry="18"/>
<text text-anchor="middle" x="1054.5026" y="-1937.8413" font-family="Times,serif" font-size="14.00" fill="#000000">21-371 Functions of a Complex Variable</text>
</g>
<!-- n455&#45;&gt;n371 -->
<g id="edge19" class="edge">
<title>n455-&gt;n371</title>
<path fill="none" stroke="#000000" d="M1093.9357,-2007.6463C1086.4806,-1995.2434 1077.8493,-1980.8833 1070.5659,-1968.7659"/>
<polygon fill="#000000" stroke="#000000" points="1073.4524,-1966.7742 1065.3009,-1960.0064 1067.4528,-1970.3804 1073.4524,-1966.7742"/>
</g>
<!-- n455&#45;&gt;n465 -->
<g id="edge51" class="edge">
<title>n455-&gt;n465</title>
<path fill="none" stroke="#000000" d="M1020.3507,-2016.7144C1006.0176,-2013.5876 991.362,-2010.4153 977.5026,-2007.457 917.5757,-1994.6652 902.4493,-1992.1559 842.5026,-1979.457 832.078,-1977.2486 821.3031,-1974.952 810.4643,-1972.6316"/>
<polygon fill="#000000" stroke="#000000" points="811.012,-1969.1696 800.5005,-1970.4957 809.5447,-1976.0141 811.012,-1969.1696"/>
</g>
<!-- n455&#45;&gt;n770 -->
<g id="edge60" class="edge">
<title>n455-&gt;n770</title>
<path fill="none" stroke="#000000" d="M1021.5533,-2016.3213C955.8846,-2001.1083 877.9046,-1982.5134 875.5026,-1979.457 857.1492,-1956.103 861.5569,-1938.8511 875.5026,-1912.6257 882.179,-1900.0705 892.458,-1889.4901 903.8698,-1880.7434"/>
<polygon fill="#000000" stroke="#000000" points="906.2371,-1883.3539 912.3443,-1874.6964 902.1712,-1877.6558 906.2371,-1883.3539"/>
</g>
<!-- n360 -->
<g id="node18" class="node">
<title>n360</title>
<ellipse fill="none" stroke="#000000" cx="1370.5026" cy="-1847.21" rx="194.196" ry="29.3315"/>
<text text-anchor="middle" x="1370.5026" y="-1851.41" font-family="Times,serif" font-size="14.00" fill="#000000">21-360</text>
<text text-anchor="middle" x="1370.5026" y="-1834.61" font-family="Times,serif" font-size="14.00" fill="#000000">Differential Geometry of Curves and Surfaces</text>
</g>
<!-- n456&#45;&gt;n360 -->
<g id="edge18" class="edge">
<title>n456-&gt;n360</title>
<path fill="none" stroke="#000000" d="M1370.5026,-1912.5559C1370.5026,-1904.4385 1370.5026,-1895.4989 1370.5026,-1886.9067"/>
<polygon fill="#000000" stroke="#000000" points="1374.0027,-1886.6772 1370.5026,-1876.6772 1367.0027,-1886.6772 1374.0027,-1886.6772"/>
</g>
<!-- n456&#45;&gt;n770 -->
<g id="edge62" class="edge">
<title>n456-&gt;n770</title>
<path fill="none" stroke="#000000" d="M1281.1837,-1920.7593C1221.9017,-1906.6343 1143.7346,-1888.0094 1080.8942,-1873.0365"/>
<polygon fill="#000000" stroke="#000000" points="1081.4845,-1869.5792 1070.9456,-1870.666 1079.862,-1876.3886 1081.4845,-1869.5792"/>
</g>
<!-- n301&#45;&gt;n737 -->
<g id="edge57" class="edge">
<title>n301-&gt;n737</title>
<path fill="none" stroke="#000000" d="M677.625,-2121.0831C708.5812,-2105.6468 750.0654,-2084.9609 784.1704,-2067.9544"/>
<polygon fill="#000000" stroke="#000000" points="785.7367,-2071.0845 793.1239,-2063.4898 782.6129,-2064.8201 785.7367,-2071.0845"/>
</g>
<!-- n621 -->
<g id="node27" class="node">
<title>n621</title>
<ellipse fill="none" stroke="#000000" cx="219.5026" cy="-2143.5833" rx="156.9769" ry="29.3315"/>
<text text-anchor="middle" x="219.5026" y="-2147.7833" font-family="Times,serif" font-size="14.00" fill="#000000">21-621</text>
<text text-anchor="middle" x="219.5026" y="-2130.9833" font-family="Times,serif" font-size="14.00" fill="#000000">Introduction to Lebesgue Integration</text>
</g>
<!-- n620&#45;&gt;n621 -->
<g id="edge30" class="edge">
<title>n620-&gt;n621</title>
<path fill="none" stroke="#000000" d="M404.3115,-2228.9559C371.0542,-2213.5927 325.6308,-2192.6093 288.14,-2175.2904"/>
<polygon fill="#000000" stroke="#000000" points="289.3376,-2171.9883 278.7916,-2170.9719 286.402,-2178.343 289.3376,-2171.9883"/>
</g>
<!-- n602 -->
<g id="node29" class="node">
<title>n602</title>
<ellipse fill="none" stroke="#000000" cx="669.5026" cy="-1847.21" rx="122.2643" ry="29.3315"/>
<text text-anchor="middle" x="669.5026" y="-1851.41" font-family="Times,serif" font-size="14.00" fill="#000000">21-602</text>
<text text-anchor="middle" x="669.5026" y="-1834.61" font-family="Times,serif" font-size="14.00" fill="#000000">Introduction to Set Theory I</text>
</g>
<!-- n465&#45;&gt;n602 -->
<!-- n603 -->
<g id="node30" class="node">
<title>n603</title>
<ellipse fill="none" stroke="#000000" cx="669.5026" cy="-1752.3788" rx="73.9808" ry="29.3315"/>
<text text-anchor="middle" x="669.5026" y="-1756.5788" font-family="Times,serif" font-size="14.00" fill="#000000">21-603</text>
<text text-anchor="middle" x="669.5026" y="-1739.7788" font-family="Times,serif" font-size="14.00" fill="#000000">Model Theory I</text>
</g>
<!-- n602&#45;&gt;n603 -->
<!-- n702 -->
<g id="node49" class="node">
<title>n702</title>
<ellipse fill="none" stroke="#000000" cx="872.5026" cy="-1752.3788" rx="64.1799" ry="29.3315"/>
<text text-anchor="middle" x="872.5026" y="-1756.5788" font-family="Times,serif" font-size="14.00" fill="#000000">21-702</text>
<text text-anchor="middle" x="872.5026" y="-1739.7788" font-family="Times,serif" font-size="14.00" fill="#000000">Set Theory II</text>
</g>
<!-- n602&#45;&gt;n702 -->
<g id="edge53" class="edge">
<title>n602-&gt;n702</title>
<path fill="none" stroke="#000000" d="M725.5107,-1821.0459C754.4204,-1807.5408 789.5382,-1791.1355 818.1981,-1777.7471"/>
<polygon fill="#000000" stroke="#000000" points="819.6815,-1780.9173 827.2603,-1773.5137 816.7187,-1774.5751 819.6815,-1780.9173"/>
</g>
<!-- n604 -->
<g id="node31" class="node">
<title>n604</title>
<ellipse fill="none" stroke="#000000" cx="647.5026" cy="-1657.5475" rx="144.1993" ry="29.3315"/>
<text text-anchor="middle" x="647.5026" y="-1661.7475" font-family="Times,serif" font-size="14.00" fill="#000000">21-604</text>
<text text-anchor="middle" x="647.5026" y="-1644.9475" font-family="Times,serif" font-size="14.00" fill="#000000">Introduction to Recursion Theory</text>
</g>
<!-- n603&#45;&gt;n604 -->
<!-- n703 -->
<g id="node50" class="node">
<title>n703</title>
<ellipse fill="none" stroke="#000000" cx="887.5026" cy="-1657.5475" rx="77.0724" ry="29.3315"/>
<text text-anchor="middle" x="887.5026" y="-1661.7475" font-family="Times,serif" font-size="14.00" fill="#000000">21-703</text>
<text text-anchor="middle" x="887.5026" y="-1644.9475" font-family="Times,serif" font-size="14.00" fill="#000000">Model Theory II</text>
</g>
<!-- n603&#45;&gt;n703 -->
<g id="edge54" class="edge">
<title>n603-&gt;n703</title>
<path fill="none" stroke="#000000" d="M719.5162,-1730.6225C751.574,-1716.6772 793.3731,-1698.4944 827.2559,-1683.7551"/>
<polygon fill="#000000" stroke="#000000" points="828.8142,-1686.8941 836.588,-1679.6956 826.0219,-1680.4752 828.8142,-1686.8941"/>
</g>
<!-- n610 -->
<g id="node32" class="node">
<title>n610</title>
<ellipse fill="none" stroke="#000000" cx="646.5026" cy="-1562.7162" rx="48.9309" ry="29.3315"/>
<text text-anchor="middle" x="646.5026" y="-1566.9162" font-family="Times,serif" font-size="14.00" fill="#000000">21-610</text>
<text text-anchor="middle" x="646.5026" y="-1550.1162" font-family="Times,serif" font-size="14.00" fill="#000000">Algebra I</text>
</g>
<!-- n604&#45;&gt;n610 -->
<!-- n623 -->
<g id="node33" class="node">
<title>n623</title>
<ellipse fill="none" stroke="#000000" cx="645.5026" cy="-1467.8849" rx="84.9573" ry="29.3315"/>
<text text-anchor="middle" x="645.5026" y="-1472.0849" font-family="Times,serif" font-size="14.00" fill="#000000">21-623</text>
<text text-anchor="middle" x="645.5026" y="-1455.2849" font-family="Times,serif" font-size="14.00" fill="#000000">Complex Analysis</text>
</g>
<!-- n610&#45;&gt;n623 -->
<!-- n624 -->
<g id="node34" class="node">
<title>n624</title>
<ellipse fill="none" stroke="#000000" cx="643.5026" cy="-1373.0536" rx="103.2533" ry="29.3315"/>
<text text-anchor="middle" x="643.5026" y="-1377.2536" font-family="Times,serif" font-size="14.00" fill="#000000">21-624</text>
<text text-anchor="middle" x="643.5026" y="-1360.4536" font-family="Times,serif" font-size="14.00" fill="#000000">Descriptive Set Theory</text>
</g>
<!-- n623&#45;&gt;n624 -->
<!-- n630 -->
<g id="node35" class="node">
<title>n630</title>
<ellipse fill="none" stroke="#000000" cx="639.5026" cy="-1278.2223" rx="137.5184" ry="29.3315"/>
<text text-anchor="middle" x="639.5026" y="-1282.4223" font-family="Times,serif" font-size="14.00" fill="#000000">21-630</text>
<text text-anchor="middle" x="639.5026" y="-1265.6223" font-family="Times,serif" font-size="14.00" fill="#000000">Ordinary Differential Equations</text>
</g>
<!-- n624&#45;&gt;n630 -->
<!-- n632 -->
<g id="node36" class="node">
<title>n632</title>
<ellipse fill="none" stroke="#000000" cx="631.5026" cy="-1183.3911" rx="161.2793" ry="29.3315"/>
<text text-anchor="middle" x="631.5026" y="-1187.5911" font-family="Times,serif" font-size="14.00" fill="#000000">21-632</text>
<text text-anchor="middle" x="631.5026" y="-1170.7911" font-family="Times,serif" font-size="14.00" fill="#000000">Introduction to Differential Equations</text>
</g>
<!-- n630&#45;&gt;n632 -->
<!-- n640 -->
<g id="node37" class="node">
<title>n640</title>
<ellipse fill="none" stroke="#000000" cx="632.5026" cy="-1088.5598" rx="152.2255" ry="29.3315"/>
<text text-anchor="middle" x="632.5026" y="-1092.7598" font-family="Times,serif" font-size="14.00" fill="#000000">21-640</text>
<text text-anchor="middle" x="632.5026" y="-1075.9598" font-family="Times,serif" font-size="14.00" fill="#000000">Introduction to Functional Analysis</text>
</g>
<!-- n632&#45;&gt;n640 -->
<!-- n651 -->
<g id="node38" class="node">
<title>n651</title>
<ellipse fill="none" stroke="#000000" cx="633.5026" cy="-993.7285" rx="83.7235" ry="29.3315"/>
<text text-anchor="middle" x="633.5026" y="-997.9285" font-family="Times,serif" font-size="14.00" fill="#000000">21-651</text>
<text text-anchor="middle" x="633.5026" y="-981.1285" font-family="Times,serif" font-size="14.00" fill="#000000">General Topology</text>
</g>
<!-- n640&#45;&gt;n651 -->
<!-- n660 -->
<g id="node39" class="node">
<title>n660</title>
<ellipse fill="none" stroke="#000000" cx="633.5026" cy="-898.8972" rx="157.6338" ry="29.3315"/>
<text text-anchor="middle" x="633.5026" y="-903.0972" font-family="Times,serif" font-size="14.00" fill="#000000">21-660</text>
<text text-anchor="middle" x="633.5026" y="-886.2972" font-family="Times,serif" font-size="14.00" fill="#000000">Introduction to Numerical Analysis I</text>
</g>
<!-- n651&#45;&gt;n660 -->
<!-- n752 -->
<g id="node54" class="node">
<title>n752</title>
<ellipse fill="none" stroke="#000000" cx="900.5026" cy="-898.8972" rx="91.1254" ry="29.3315"/>
<text text-anchor="middle" x="900.5026" y="-903.0972" font-family="Times,serif" font-size="14.00" fill="#000000">21-752</text>
<text text-anchor="middle" x="900.5026" y="-886.2972" font-family="Times,serif" font-size="14.00" fill="#000000">Algebraic Topology</text>
</g>
<!-- n651&#45;&gt;n752 -->
<g id="edge59" class="edge">
<title>n651-&gt;n752</title>
<path fill="none" stroke="#000000" d="M692.4275,-972.8C732.8324,-958.4492 786.6564,-939.3323 829.4388,-924.1372"/>
<polygon fill="#000000" stroke="#000000" points="830.6938,-927.4057 838.9456,-920.7606 828.3509,-920.8094 830.6938,-927.4057"/>
</g>
<!-- n701 -->
<g id="node40" class="node">
<title>n701</title>
<ellipse fill="none" stroke="#000000" cx="655.5026" cy="-804.0659" rx="97.7935" ry="29.3315"/>
<text text-anchor="middle" x="655.5026" y="-808.2659" font-family="Times,serif" font-size="14.00" fill="#000000">21-701</text>
<text text-anchor="middle" x="655.5026" y="-791.4659" font-family="Times,serif" font-size="14.00" fill="#000000">Discrete Mathematics</text>
</g>
<!-- n660&#45;&gt;n701 -->
<!-- n720 -->
<g id="node41" class="node">
<title>n720</title>
<ellipse fill="none" stroke="#000000" cx="677.5026" cy="-709.2346" rx="108.1349" ry="29.3315"/>
<text text-anchor="middle" x="677.5026" y="-713.4346" font-family="Times,serif" font-size="14.00" fill="#000000">21-720</text>
<text text-anchor="middle" x="677.5026" y="-696.6346" font-family="Times,serif" font-size="14.00" fill="#000000">Measure and Integration</text>
</g>
<!-- n701&#45;&gt;n720 -->
<!-- n724 -->
<g id="node42" class="node">
<title>n724</title>
<ellipse fill="none" stroke="#000000" cx="664.5026" cy="-614.4033" rx="73.9449" ry="29.3315"/>
<text text-anchor="middle" x="664.5026" y="-618.6033" font-family="Times,serif" font-size="14.00" fill="#000000">21-724</text>
<text text-anchor="middle" x="664.5026" y="-601.8033" font-family="Times,serif" font-size="14.00" fill="#000000">Sobolev Spaces</text>
</g>
<!-- n720&#45;&gt;n724 -->
<!-- n721 -->
<g id="node51" class="node">
<title>n721</title>
<ellipse fill="none" stroke="#000000" cx="863.5026" cy="-614.4033" rx="55.1207" ry="29.3315"/>
<text text-anchor="middle" x="863.5026" y="-618.6033" font-family="Times,serif" font-size="14.00" fill="#000000">21-721</text>
<text text-anchor="middle" x="863.5026" y="-601.8033" font-family="Times,serif" font-size="14.00" fill="#000000">Probability</text>
</g>
<!-- n720&#45;&gt;n721 -->
<g id="edge55" class="edge">
<title>n720-&gt;n721</title>
<path fill="none" stroke="#000000" d="M728.8203,-683.0705C755.5606,-669.4371 788.0978,-652.8482 814.4924,-639.391"/>
<polygon fill="#000000" stroke="#000000" points="816.2336,-642.4319 823.5528,-634.7716 813.0541,-636.1957 816.2336,-642.4319"/>
</g>
<!-- n723 -->
<g id="node52" class="node">
<title>n723</title>
<ellipse fill="none" stroke="#000000" cx="1045.5026" cy="-614.4033" rx="109.3526" ry="29.3315"/>
<text text-anchor="middle" x="1045.5026" y="-618.6033" font-family="Times,serif" font-size="14.00" fill="#000000">21-723</text>
<text text-anchor="middle" x="1045.5026" y="-601.8033" font-family="Times,serif" font-size="14.00" fill="#000000">Advanced Real Analysis</text>
</g>
<!-- n720&#45;&gt;n723 -->
<g id="edge56" class="edge">
<title>n720-&gt;n723</title>
<path fill="none" stroke="#000000" d="M755.9965,-689.0073C814.784,-673.8581 895.2737,-653.1164 956.4629,-637.3483"/>
<polygon fill="#000000" stroke="#000000" points="957.6854,-640.6477 966.4956,-634.763 955.9386,-633.8692 957.6854,-640.6477"/>
</g>
<!-- n732 -->
<g id="node43" class="node">
<title>n732</title>
<ellipse fill="none" stroke="#000000" cx="658.5026" cy="-519.5721" rx="133.7758" ry="29.3315"/>
<text text-anchor="middle" x="658.5026" y="-523.7721" font-family="Times,serif" font-size="14.00" fill="#000000">21-732</text>
<text text-anchor="middle" x="658.5026" y="-506.9721" font-family="Times,serif" font-size="14.00" fill="#000000">Partial Differential Equations I</text>
</g>
<!-- n724&#45;&gt;n732 -->
<!-- n738 -->
<g id="node44" class="node">
<title>n738</title>
<ellipse fill="none" stroke="#000000" cx="658.5026" cy="-424.7408" rx="108.225" ry="29.3315"/>
<text text-anchor="middle" x="658.5026" y="-428.9408" font-family="Times,serif" font-size="14.00" fill="#000000">21-738</text>
<text text-anchor="middle" x="658.5026" y="-412.1408" font-family="Times,serif" font-size="14.00" fill="#000000">Extremal Combinatorics</text>
</g>
<!-- n732&#45;&gt;n738 -->
<!-- n832 -->
<g id="node57" class="node">
<title>n832</title>
<ellipse fill="none" stroke="#000000" cx="945.5026" cy="-424.7408" rx="136.8667" ry="29.3315"/>
<text text-anchor="middle" x="945.5026" y="-428.9408" font-family="Times,serif" font-size="14.00" fill="#000000">21-832</text>
<text text-anchor="middle" x="945.5026" y="-412.1408" font-family="Times,serif" font-size="14.00" fill="#000000">Partial Differential Equations II</text>
</g>
<!-- n732&#45;&gt;n832 -->
<g id="edge64" class="edge">
<title>n732-&gt;n832</title>
<path fill="none" stroke="#000000" d="M732.7855,-495.0273C772.0714,-482.0464 820.4588,-466.0581 861.1532,-452.6117"/>
<polygon fill="#000000" stroke="#000000" points="862.3865,-455.8904 870.7835,-449.4297 860.1903,-449.2438 862.3865,-455.8904"/>
</g>
<!-- n742 -->
<g id="node45" class="node">
<title>n742</title>
<ellipse fill="none" stroke="#000000" cx="658.5026" cy="-329.9095" rx="102.6623" ry="29.3315"/>
<text text-anchor="middle" x="658.5026" y="-334.1095" font-family="Times,serif" font-size="14.00" fill="#000000">21-742</text>
<text text-anchor="middle" x="658.5026" y="-317.3095" font-family="Times,serif" font-size="14.00" fill="#000000">Calculus Of Variations</text>
</g>
<!-- n738&#45;&gt;n742 -->
<!-- n759 -->
<g id="node46" class="node">
<title>n759</title>
<ellipse fill="none" stroke="#000000" cx="658.5026" cy="-235.0782" rx="99.582" ry="29.3315"/>
<text text-anchor="middle" x="658.5026" y="-239.2782" font-family="Times,serif" font-size="14.00" fill="#000000">21-759</text>
<text text-anchor="middle" x="658.5026" y="-222.4782" font-family="Times,serif" font-size="14.00" fill="#000000">Differential Geometry</text>
</g>
<!-- n742&#45;&gt;n759 -->
<!-- n762 -->
<g id="node47" class="node">
<title>n762</title>
<ellipse fill="none" stroke="#000000" cx="658.5026" cy="-140.2469" rx="106.9946" ry="29.3315"/>
<text text-anchor="middle" x="658.5026" y="-144.4469" font-family="Times,serif" font-size="14.00" fill="#000000">21-762</text>
<text text-anchor="middle" x="658.5026" y="-127.6469" font-family="Times,serif" font-size="14.00" fill="#000000">Finite Element Methods</text>
</g>
<!-- n759&#45;&gt;n762 -->
<!-- n880 -->
<g id="node48" class="node">
<title>n880</title>
<ellipse fill="none" stroke="#000000" cx="658.5026" cy="-45.4156" rx="89.2397" ry="29.3315"/>
<text text-anchor="middle" x="658.5026" y="-49.6156" font-family="Times,serif" font-size="14.00" fill="#000000">21-880</text>
<text text-anchor="middle" x="658.5026" y="-32.8156" font-family="Times,serif" font-size="14.00" fill="#000000">Stochastic Calculus</text>
</g>
<!-- n762&#45;&gt;n880 -->
<!-- n803 -->
<g id="node56" class="node">
<title>n803</title>
<ellipse fill="none" stroke="#000000" cx="889.5026" cy="-1562.7162" rx="80.663" ry="29.3315"/>
<text text-anchor="middle" x="889.5026" y="-1566.9162" font-family="Times,serif" font-size="14.00" fill="#000000">21-803</text>
<text text-anchor="middle" x="889.5026" y="-1550.1162" font-family="Times,serif" font-size="14.00" fill="#000000">Model Theory III</text>
</g>
<!-- n703&#45;&gt;n803 -->
<g id="edge63" class="edge">
<title>n703-&gt;n803</title>
<path fill="none" stroke="#000000" d="M888.1245,-1628.0621C888.2957,-1619.9447 888.4842,-1611.005 888.6654,-1602.4129"/>
<polygon fill="#000000" stroke="#000000" points="892.1694,-1602.2549 888.8812,-1592.1833 885.171,-1602.1073 892.1694,-1602.2549"/>
</g>
</g>
</svg>