<?xml version="1.0" encoding="UTF-8" standalone="no"?><!DOCTYPE svg PUBLIC "-//W3C//DTD SVG 1.1//EN" "http://www.w3.org/Graphics/SVG/1.1/DTD/svg11.dtd"><!-- Generated by graphviz version 2.40.1 (20161225.0304)
 --><!-- Title: prereqs Pages: 1 --><svg xmlns="http://www.w3.org/2000/svg" xmlns:xlink="http://www.w3.org/1999/xlink" width="2129pt" height="2573pt" viewBox="0.00 0.00 2128.80 2573.13">
<g id="graph0" class="graph" transform="scale(1 1) rotate(0) translate(4 2569.131)">
<title>prereqs</title>
<polygon fill="#ffffff" stroke="transparent" points="-4,4 -4,-2569.131 2124.8006,-2569.131 2124.8006,4 -4,4"/>
<g id="clust1" class="cluster">
<title>cluster_n373_n455</title>
<polygon fill="none" stroke="#000000" points="462.5026,-8 462.5026,-1979.457 800.5026,-1979.457 800.5026,-8 462.5026,-8"/>
</g>
<!-- refresher -->
<g id="node1" class="node">
<title>refresher</title>
<ellipse fill="none" stroke="#000000" cx="550.5026" cy="-2547.131" rx="45.1804" ry="18"/>
<text text-anchor="middle" x="550.5026" y="-2542.931" font-family="Times,serif" font-size="14.00" fill="#000000">refresher</text>
</g>
<!-- n120 -->
<g id="node2" class="node">
<title>n120</title>
<ellipse fill="none" stroke="#000000" cx="550.5026" cy="-2463.7153" rx="144.7526" ry="29.3315"/>
<text text-anchor="middle" x="550.5026" y="-2467.9153" font-family="Times,serif" font-size="14.00" fill="#000000">21-120</text>
<text text-anchor="middle" x="550.5026" y="-2451.1153" font-family="Times,serif" font-size="14.00" fill="#000000">Differential and Integral Calculus</text>
</g>
<!-- refresher&#45;&gt;n120 -->
<g id="edge1" class="edge">
<title>refresher-&gt;n120</title>
<path fill="none" stroke="#000000" d="M550.5026,-2529.031C550.5026,-2521.4415 550.5026,-2512.2969 550.5026,-2503.2857"/>
<polygon fill="#000000" stroke="#000000" points="554.0027,-2503.2584 550.5026,-2493.2585 547.0027,-2503.2585 554.0027,-2503.2584"/>
</g>
<!-- n122 -->
<g id="node3" class="node">
<title>n122</title>
<ellipse fill="none" stroke="#000000" cx="418.5026" cy="-2357.0046" rx="134.4566" ry="29.3315"/>
<text text-anchor="middle" x="418.5026" y="-2361.2046" font-family="Times,serif" font-size="14.00" fill="#000000">21-122</text>
<text text-anchor="middle" x="418.5026" y="-2344.4046" font-family="Times,serif" font-size="14.00" fill="#000000">Integration and Approximation</text>
</g>
<!-- n120&#45;&gt;n122 -->
<g id="edge2" class="edge">
<title>n120-&gt;n122</title>
<path fill="none" stroke="#000000" d="M515.1291,-2435.1188C498.8533,-2421.9613 479.3848,-2406.2226 462.2016,-2392.3315"/>
<polygon fill="#000000" stroke="#000000" points="463.9509,-2389.245 453.9739,-2385.6801 459.5502,-2394.6887 463.9509,-2389.245"/>
</g>
<!-- n127 -->
<g id="node4" class="node">
<title>n127</title>
<ellipse fill="none" stroke="#000000" cx="683.5026" cy="-2357.0046" rx="112.4612" ry="41.0911"/>
<text text-anchor="middle" x="683.5026" y="-2369.6046" font-family="Times,serif" font-size="14.00" fill="#000000">21-127</text>
<text text-anchor="middle" x="683.5026" y="-2352.8046" font-family="Times,serif" font-size="14.00" fill="#000000">Concepts of Mathematics</text>
<text text-anchor="middle" x="683.5026" y="-2336.0046" font-family="Times,serif" font-size="14.00" fill="#000000">(proofs)</text>
</g>
<!-- n120&#45;&gt;n127 -->
<g id="edge3" class="edge">
<title>n120-&gt;n127</title>
<path fill="none" stroke="#000000" d="M586.1442,-2435.1188C599.1288,-2424.7008 614.1302,-2412.6646 628.4085,-2401.2087"/>
<polygon fill="#000000" stroke="#000000" points="630.6396,-2403.9059 636.249,-2394.9179 626.2589,-2398.4461 630.6396,-2403.9059"/>
</g>
<!-- n301 -->
<g id="node17" class="node">
<title>n301</title>
<ellipse fill="#afeeee" stroke="#000000" cx="642.5026" cy="-2143.5833" rx="69.706" ry="29.3315"/>
<text text-anchor="middle" x="642.5026" y="-2147.7833" font-family="Times,serif" font-size="14.00" fill="#000000">21-301</text>
<text text-anchor="middle" x="642.5026" y="-2130.9833" font-family="Times,serif" font-size="14.00" fill="#000000">Combinatorics</text>
</g>
<!-- n122&#45;&gt;n301 -->
<g id="edge16" class="edge">
<title>n122-&gt;n301</title>
<path fill="none" stroke="#000000" d="M398.2625,-2327.8319C380.4046,-2298.1357 360.6236,-2252.142 384.5026,-2220.8783 421.4135,-2172.5527 458.2582,-2202.3531 516.5026,-2184.8783 536.7773,-2178.7954 558.7433,-2171.7546 578.5699,-2165.2287"/>
<polygon fill="#000000" stroke="#000000" points="579.7185,-2168.5353 588.1142,-2162.0729 577.521,-2161.8892 579.7185,-2168.5353"/>
</g>
<!-- n620 -->
<g id="node26" class="node">
<title>n620</title>
<ellipse fill="#afeeee" stroke="#000000" cx="460.5026" cy="-2250.294" rx="66.6455" ry="29.3315"/>
<text text-anchor="middle" x="460.5026" y="-2254.494" font-family="Times,serif" font-size="14.00" fill="#000000">21-620</text>
<text text-anchor="middle" x="460.5026" y="-2237.694" font-family="Times,serif" font-size="14.00" fill="#000000">Real Analysis</text>
</g>
<!-- n122&#45;&gt;n620 -->
<g id="edge29" class="edge">
<title>n122-&gt;n620</title>
<path fill="none" stroke="#000000" d="M430.0905,-2327.563C434.7729,-2315.6663 440.2424,-2301.7697 445.2419,-2289.0674"/>
<polygon fill="#000000" stroke="#000000" points="448.5469,-2290.2266 448.9526,-2279.6395 442.0333,-2287.6629 448.5469,-2290.2266"/>
</g>
<!-- n228 -->
<g id="node5" class="node">
<title>n228</title>
<ellipse fill="none" stroke="#000000" cx="642.5026" cy="-2250.294" rx="97.7935" ry="29.3315"/>
<text text-anchor="middle" x="642.5026" y="-2254.494" font-family="Times,serif" font-size="14.00" fill="#000000">21-228</text>
<text text-anchor="middle" x="642.5026" y="-2237.694" font-family="Times,serif" font-size="14.00" fill="#000000">Discrete Mathematics</text>
</g>
<!-- n127&#45;&gt;n228 -->
<g id="edge4" class="edge">
<title>n127-&gt;n228</title>
<path fill="none" stroke="#000000" d="M667.7682,-2316.0527C664.3883,-2307.2557 660.8253,-2297.9824 657.4752,-2289.2632"/>
<polygon fill="#000000" stroke="#000000" points="660.6582,-2287.7885 653.8044,-2279.7091 654.1239,-2290.2991 660.6582,-2287.7885"/>
</g>
<!-- n242 -->
<g id="node8" class="node">
<title>n242</title>
<ellipse fill="none" stroke="#000000" cx="955.5026" cy="-2250.294" rx="69.1341" ry="29.3315"/>
<text text-anchor="middle" x="955.5026" y="-2254.494" font-family="Times,serif" font-size="14.00" fill="#000000">21-142</text>
<text text-anchor="middle" x="955.5026" y="-2237.694" font-family="Times,serif" font-size="14.00" fill="#000000">Matrix Theory</text>
</g>
<!-- n127&#45;&gt;n242 -->
<g id="edge7" class="edge">
<title>n127-&gt;n242</title>
<path fill="none" stroke="#000000" d="M760.7194,-2326.7111C803.2328,-2310.0323 855.2361,-2289.6304 894.8127,-2274.1038"/>
<polygon fill="#000000" stroke="#000000" points="896.3056,-2277.2779 904.3365,-2270.3674 893.749,-2270.7614 896.3056,-2277.2779"/>
</g>
<!-- n329 -->
<g id="node12" class="node">
<title>n329</title>
<ellipse fill="none" stroke="#000000" cx="813.5026" cy="-2250.294" rx="55.0479" ry="29.3315"/>
<text text-anchor="middle" x="813.5026" y="-2254.494" font-family="Times,serif" font-size="14.00" fill="#000000">21-329</text>
<text text-anchor="middle" x="813.5026" y="-2237.694" font-family="Times,serif" font-size="14.00" fill="#000000">Set Theory</text>
</g>
<!-- n127&#45;&gt;n329 -->
<g id="edge11" class="edge">
<title>n127-&gt;n329</title>
<path fill="none" stroke="#000000" d="M729.7018,-2319.082C744.5874,-2306.8631 760.9124,-2293.4627 775.1675,-2281.7614"/>
<polygon fill="#000000" stroke="#000000" points="777.7862,-2284.14 783.295,-2275.0899 773.3449,-2278.7294 777.7862,-2284.14"/>
</g>
<!-- n127&#45;&gt;n620 -->
<g id="edge28" class="edge">
<title>n127-&gt;n620</title>
<path fill="none" stroke="#000000" d="M614.7757,-2324.1172C582.6502,-2308.7444 544.941,-2290.6997 514.8461,-2276.2986"/>
<polygon fill="#000000" stroke="#000000" points="516.2966,-2273.1126 505.7654,-2271.9532 513.275,-2279.4269 516.2966,-2273.1126"/>
</g>
<!-- n300 -->
<g id="node6" class="node">
<title>n300</title>
<ellipse fill="none" stroke="#000000" cx="448.5026" cy="-2143.5833" rx="58.746" ry="29.3315"/>
<text text-anchor="middle" x="448.5026" y="-2147.7833" font-family="Times,serif" font-size="14.00" fill="#000000">21-300</text>
<text text-anchor="middle" x="448.5026" y="-2130.9833" font-family="Times,serif" font-size="14.00" fill="#000000">Basic Logic</text>
</g>
<!-- n228&#45;&gt;n300 -->
<g id="edge5" class="edge">
<title>n228-&gt;n300</title>
<path fill="none" stroke="#000000" d="M595.5406,-2224.4623C565.7644,-2208.0837 527.3253,-2186.9401 497.2175,-2170.3791"/>
<polygon fill="#000000" stroke="#000000" points="498.6088,-2167.1499 488.16,-2165.397 495.2351,-2173.2833 498.6088,-2167.1499"/>
</g>
<!-- n228&#45;&gt;n301 -->
<g id="edge17" class="edge">
<title>n228-&gt;n301</title>
<path fill="none" stroke="#000000" d="M642.5026,-2220.8523C642.5026,-2209.2853 642.5026,-2195.8276 642.5026,-2183.4153"/>
<polygon fill="#000000" stroke="#000000" points="646.0027,-2183.2993 642.5026,-2173.2993 639.0027,-2183.2993 646.0027,-2183.2993"/>
</g>
<!-- n484 -->
<g id="node25" class="node">
<title>n484</title>
<ellipse fill="#afeeee" stroke="#000000" cx="813.5026" cy="-2143.5833" rx="67.2226" ry="29.3315"/>
<text text-anchor="middle" x="813.5026" y="-2147.7833" font-family="Times,serif" font-size="14.00" fill="#000000">21-484</text>
<text text-anchor="middle" x="813.5026" y="-2130.9833" font-family="Times,serif" font-size="14.00" fill="#000000">Graph Theory</text>
</g>
<!-- n228&#45;&gt;n484 -->
<g id="edge26" class="edge">
<title>n228-&gt;n484</title>
<path fill="none" stroke="#000000" d="M685.2121,-2223.6416C709.8124,-2208.29 740.7805,-2188.9648 766.1273,-2173.1474"/>
<polygon fill="#000000" stroke="#000000" points="768.2079,-2175.9746 774.8386,-2167.7111 764.502,-2170.036 768.2079,-2175.9746"/>
</g>
<!-- n302 -->
<g id="node7" class="node">
<title>n302</title>
<ellipse fill="none" stroke="#000000" cx="407.5026" cy="-2036.8726" rx="80.7353" ry="29.3315"/>
<text text-anchor="middle" x="407.5026" y="-2041.0726" font-family="Times,serif" font-size="14.00" fill="#000000">21-302</text>
<text text-anchor="middle" x="407.5026" y="-2024.2726" font-family="Times,serif" font-size="14.00" fill="#000000">Lambda Calculus</text>
</g>
<!-- n300&#45;&gt;n302 -->
<g id="edge6" class="edge">
<title>n300-&gt;n302</title>
<path fill="none" stroke="#000000" d="M437.2992,-2114.4241C432.7269,-2102.5239 427.3719,-2088.5863 422.4724,-2075.8343"/>
<polygon fill="#000000" stroke="#000000" points="425.6887,-2074.4467 418.835,-2066.3673 419.1544,-2076.9573 425.6887,-2074.4467"/>
</g>
<!-- n400 -->
<g id="node22" class="node">
<title>n400</title>
<ellipse fill="none" stroke="#000000" cx="221.5026" cy="-2036.8726" rx="86.8067" ry="29.3315"/>
<text text-anchor="middle" x="221.5026" y="-2041.0726" font-family="Times,serif" font-size="14.00" fill="#000000">21-400</text>
<text text-anchor="middle" x="221.5026" y="-2024.2726" font-family="Times,serif" font-size="14.00" fill="#000000">Intermediate Logic</text>
</g>
<!-- n300&#45;&gt;n400 -->
<g id="edge23" class="edge">
<title>n300-&gt;n400</title>
<path fill="none" stroke="#000000" d="M412.3931,-2120.2272C402.256,-2114.0655 391.1035,-2107.6469 380.5026,-2102.2883 351.5431,-2087.6494 318.5066,-2073.647 290.0781,-2062.3803"/>
<polygon fill="#000000" stroke="#000000" points="291.2136,-2059.0661 280.6263,-2058.6674 288.6541,-2065.5814 291.2136,-2059.0661"/>
</g>
<!-- n269 -->
<g id="node9" class="node">
<title>n269</title>
<ellipse fill="none" stroke="#000000" cx="1097.5026" cy="-2143.5833" rx="105.7188" ry="41.0911"/>
<text text-anchor="middle" x="1097.5026" y="-2156.1833" font-family="Times,serif" font-size="14.00" fill="#000000">21-269</text>
<text text-anchor="middle" x="1097.5026" y="-2139.3833" font-family="Times,serif" font-size="14.00" fill="#000000">Vector Analysis</text>
<text text-anchor="middle" x="1097.5026" y="-2122.5833" font-family="Times,serif" font-size="14.00" fill="#000000">(multidimensional calc)</text>
</g>
<!-- n242&#45;&gt;n269 -->
<g id="edge8" class="edge">
<title>n242-&gt;n269</title>
<path fill="none" stroke="#000000" d="M989.8769,-2224.4623C1005.0426,-2213.0655 1023.2784,-2199.3616 1040.3935,-2186.4999"/>
<polygon fill="#000000" stroke="#000000" points="1042.7954,-2189.073 1048.6871,-2180.2674 1038.5901,-2183.477 1042.7954,-2189.073"/>
</g>
<!-- n373 -->
<g id="node13" class="node">
<title>n373</title>
<ellipse fill="none" stroke="#000000" cx="599.5026" cy="-2036.8726" rx="92.8998" ry="29.3315"/>
<text text-anchor="middle" x="599.5026" y="-2041.0726" font-family="Times,serif" font-size="14.00" fill="#000000">21-373</text>
<text text-anchor="middle" x="599.5026" y="-2024.2726" font-family="Times,serif" font-size="14.00" fill="#000000">Algebraic Structures</text>
</g>
<!-- n242&#45;&gt;n373 -->
<g id="edge12" class="edge">
<title>n242-&gt;n373</title>
<path fill="none" stroke="#000000" d="M950.726,-2220.8649C943.5915,-2186.8654 926.7634,-2131.8244 889.5026,-2102.2883 822.8341,-2049.4409 784.2383,-2086.0958 701.5026,-2066.2883 693.3866,-2064.3452 684.9505,-2062.1692 676.5615,-2059.9035"/>
<polygon fill="#000000" stroke="#000000" points="677.327,-2056.4842 666.7571,-2057.2111 675.4732,-2063.2343 677.327,-2056.4842"/>
</g>
<!-- n380 -->
<g id="node21" class="node">
<title>n380</title>
<ellipse fill="none" stroke="#000000" cx="1952.5026" cy="-1942.0413" rx="168.0961" ry="29.3315"/>
<text text-anchor="middle" x="1952.5026" y="-1946.2413" font-family="Times,serif" font-size="14.00" fill="#000000">21-380</text>
<text text-anchor="middle" x="1952.5026" y="-1929.4413" font-family="Times,serif" font-size="14.00" fill="#000000">Introduction to Mathematical Modeling</text>
</g>
<!-- n242&#45;&gt;n380 -->
<g id="edge21" class="edge">
<title>n242-&gt;n380</title>
<path fill="none" stroke="#000000" d="M1022.874,-2243.3162C1209.2038,-2223.001 1726.9418,-2159.3764 1867.5026,-2066.2883 1898.826,-2045.544 1921.773,-2008.9204 1935.8741,-1980.7915"/>
<polygon fill="#000000" stroke="#000000" points="1939.1103,-1982.139 1940.3165,-1971.613 1932.8095,-1979.0894 1939.1103,-1982.139"/>
</g>
<!-- n242&#45;&gt;n484 -->
<g id="edge27" class="edge">
<title>n242-&gt;n484</title>
<path fill="none" stroke="#000000" d="M921.1284,-2224.4623C901.4188,-2209.6508 876.5237,-2190.9426 855.6422,-2175.2505"/>
<polygon fill="#000000" stroke="#000000" points="857.6573,-2172.3867 847.5603,-2169.1771 853.452,-2177.9827 857.6573,-2172.3867"/>
</g>
<!-- n261 -->
<g id="node10" class="node">
<title>n261</title>
<ellipse fill="none" stroke="#000000" cx="1530.5026" cy="-2036.8726" rx="199.1935" ry="29.3315"/>
<text text-anchor="middle" x="1530.5026" y="-2041.0726" font-family="Times,serif" font-size="14.00" fill="#000000">21-261</text>
<text text-anchor="middle" x="1530.5026" y="-2024.2726" font-family="Times,serif" font-size="14.00" fill="#000000">Introduction to Ordinary Differential Equations</text>
</g>
<!-- n269&#45;&gt;n261 -->
<g id="edge9" class="edge">
<title>n269-&gt;n261</title>
<path fill="none" stroke="#000000" d="M1186.9579,-2121.5375C1253.8919,-2105.0419 1345.8965,-2082.3679 1417.8486,-2064.6356"/>
<polygon fill="#000000" stroke="#000000" points="1418.9916,-2067.9587 1427.8636,-2062.1675 1417.3165,-2061.1621 1418.9916,-2067.9587"/>
</g>
<!-- n325 -->
<g id="node11" class="node">
<title>n325</title>
<ellipse fill="none" stroke="#000000" cx="1803.5026" cy="-2036.8726" rx="55.1207" ry="29.3315"/>
<text text-anchor="middle" x="1803.5026" y="-2041.0726" font-family="Times,serif" font-size="14.00" fill="#000000">21-325</text>
<text text-anchor="middle" x="1803.5026" y="-2024.2726" font-family="Times,serif" font-size="14.00" fill="#000000">Probability</text>
</g>
<!-- n269&#45;&gt;n325 -->
<g id="edge10" class="edge">
<title>n269-&gt;n325</title>
<path fill="none" stroke="#000000" d="M1202.933,-2140.6759C1331.5484,-2134.906 1554.574,-2117.6851 1738.5026,-2066.2883 1743.5186,-2064.8866 1748.6404,-2063.1518 1753.6978,-2061.2312"/>
<polygon fill="#000000" stroke="#000000" points="1755.3418,-2064.3418 1763.2997,-2057.3473 1752.7169,-2057.8525 1755.3418,-2064.3418"/>
</g>
<!-- n455 -->
<g id="node15" class="node">
<title>n455</title>
<ellipse fill="none" stroke="#000000" cx="1097.5026" cy="-2036.8726" rx="124.6805" ry="29.3315"/>
<text text-anchor="middle" x="1097.5026" y="-2041.0726" font-family="Times,serif" font-size="14.00" fill="#000000">21-455</text>
<text text-anchor="middle" x="1097.5026" y="-2024.2726" font-family="Times,serif" font-size="14.00" fill="#000000">Intermediate Real Analysis I</text>
</g>
<!-- n269&#45;&gt;n455 -->
<g id="edge14" class="edge">
<title>n269-&gt;n455</title>
<path fill="none" stroke="#000000" d="M1097.5026,-2102.0206C1097.5026,-2093.7088 1097.5026,-2084.9952 1097.5026,-2076.7422"/>
<polygon fill="#000000" stroke="#000000" points="1101.0027,-2076.5997 1097.5026,-2066.5997 1094.0027,-2076.5997 1101.0027,-2076.5997"/>
</g>
<!-- n737 -->
<g id="node53" class="node">
<title>n737</title>
<ellipse fill="#afeeee" stroke="#000000" cx="832.5026" cy="-2036.8726" rx="122.2396" ry="29.3315"/>
<text text-anchor="middle" x="832.5026" y="-2041.0726" font-family="Times,serif" font-size="14.00" fill="#000000">21-737</text>
<text text-anchor="middle" x="832.5026" y="-2024.2726" font-family="Times,serif" font-size="14.00" fill="#000000">Probabilistic Combinatorics</text>
</g>
<!-- n269&#45;&gt;n737 -->
<g id="edge58" class="edge">
<title>n269-&gt;n737</title>
<path fill="none" stroke="#000000" d="M1023.6854,-2113.8584C986.7117,-2098.9698 942.0982,-2081.0048 905.2708,-2066.175"/>
<polygon fill="#000000" stroke="#000000" points="906.179,-2062.7677 895.5954,-2062.2789 903.5642,-2069.261 906.179,-2062.7677"/>
</g>
<!-- n261&#45;&gt;n380 -->
<g id="edge22" class="edge">
<title>n261-&gt;n380</title>
<path fill="none" stroke="#000000" d="M1640.0016,-2012.2661C1701.1999,-1998.5138 1777.3526,-1981.4008 1839.161,-1967.5113"/>
<polygon fill="#000000" stroke="#000000" points="1839.964,-1970.9182 1848.9532,-1965.3108 1838.4291,-1964.0886 1839.964,-1970.9182"/>
</g>
<!-- n476 -->
<g id="node24" class="node">
<title>n476</title>
<ellipse fill="#afeeee" stroke="#000000" cx="1614.5026" cy="-1942.0413" rx="151.6149" ry="29.3315"/>
<text text-anchor="middle" x="1614.5026" y="-1946.2413" font-family="Times,serif" font-size="14.00" fill="#000000">21-476</text>
<text text-anchor="middle" x="1614.5026" y="-1929.4413" font-family="Times,serif" font-size="14.00" fill="#000000">Introduction to Dynamical Systems</text>
</g>
<!-- n261&#45;&gt;n476 -->
<g id="edge25" class="edge">
<title>n261-&gt;n476</title>
<path fill="none" stroke="#000000" d="M1556.3908,-2007.6463C1564.4547,-1998.5426 1573.4525,-1988.3846 1581.9133,-1978.8329"/>
<polygon fill="#000000" stroke="#000000" points="1584.5446,-1981.1408 1588.5553,-1971.3344 1579.3047,-1976.4993 1584.5446,-1981.1408"/>
</g>
<!-- n341 -->
<g id="node14" class="node">
<title>n341</title>
<ellipse fill="none" stroke="#000000" cx="71.5026" cy="-1942.0413" rx="71.5053" ry="29.3315"/>
<text text-anchor="middle" x="71.5026" y="-1946.2413" font-family="Times,serif" font-size="14.00" fill="#000000">21-341</text>
<text text-anchor="middle" x="71.5026" y="-1929.4413" font-family="Times,serif" font-size="14.00" fill="#000000">Linear Algebra</text>
</g>
<!-- n373&#45;&gt;n341 -->
<g id="edge13" class="edge">
<title>n373-&gt;n341</title>
<path fill="none" stroke="#000000" d="M534.1194,-2015.9281C522.0438,-2012.6581 509.4683,-2009.6437 497.5026,-2007.457 345.7358,-1979.7209 300.633,-2018.9868 151.5026,-1979.457 142.3727,-1977.0369 133.0043,-1973.615 124.041,-1969.8136"/>
<polygon fill="#000000" stroke="#000000" points="125.4336,-1966.6025 114.8739,-1965.7408 122.5915,-1972.9996 125.4336,-1966.6025"/>
</g>
<!-- n374 -->
<g id="node20" class="node">
<title>n374</title>
<ellipse fill="#afeeee" stroke="#000000" cx="223.5026" cy="-1942.0413" rx="62.9503" ry="29.3315"/>
<text text-anchor="middle" x="223.5026" y="-1946.2413" font-family="Times,serif" font-size="14.00" fill="#000000">21-374</text>
<text text-anchor="middle" x="223.5026" y="-1929.4413" font-family="Times,serif" font-size="14.00" fill="#000000">Field Theory</text>
</g>
<!-- n373&#45;&gt;n374 -->
<g id="edge20" class="edge">
<title>n373-&gt;n374</title>
<path fill="none" stroke="#000000" d="M532.9104,-2016.1879C521.1845,-2012.9708 509.0405,-2009.9072 497.5026,-2007.457 408.8436,-1988.6292 381.86,-2006.9763 295.5026,-1979.457 287.4956,-1976.9054 279.3104,-1973.5112 271.465,-1969.8056"/>
<polygon fill="#000000" stroke="#000000" points="272.9577,-1966.6392 262.4422,-1965.3444 269.8551,-1972.9141 272.9577,-1966.6392"/>
</g>
<!-- n441 -->
<g id="node23" class="node">
<title>n441</title>
<ellipse fill="#afeeee" stroke="#000000" cx="379.5026" cy="-1942.0413" rx="74.6245" ry="29.3315"/>
<text text-anchor="middle" x="379.5026" y="-1946.2413" font-family="Times,serif" font-size="14.00" fill="#000000">21-441</text>
<text text-anchor="middle" x="379.5026" y="-1929.4413" font-family="Times,serif" font-size="14.00" fill="#000000">Number Theory</text>
</g>
<!-- n373&#45;&gt;n441 -->
<g id="edge24" class="edge">
<title>n373-&gt;n441</title>
<path fill="none" stroke="#000000" d="M540.8856,-2013.8513C515.4314,-2003.6363 485.3564,-1991.2727 458.5026,-1979.457 451.2752,-1976.2769 443.7222,-1972.8438 436.2746,-1969.3921"/>
<polygon fill="#000000" stroke="#000000" points="437.4714,-1966.0881 426.9297,-1965.0274 434.5091,-1972.4305 437.4714,-1966.0881"/>
</g>
<!-- n465 -->
<g id="node28" class="node">
<title>n465</title>
<ellipse fill="#afeeee" stroke="#000000" cx="668.5026" cy="-1942.0413" rx="49.6224" ry="29.3315"/>
<text text-anchor="middle" x="668.5026" y="-1946.2413" font-family="Times,serif" font-size="14.00" fill="#000000">21-465</text>
<text text-anchor="middle" x="668.5026" y="-1929.4413" font-family="Times,serif" font-size="14.00" fill="#000000">Topology</text>
</g>
<!-- n373&#45;&gt;n465 -->
<g id="edge52" class="edge">
<title>n373-&gt;n465</title>
<path fill="none" stroke="#000000" d="M620.3922,-2008.1627C625.1192,-2001.6661 630.2522,-1994.6114 635.3462,-1987.6105"/>
<polygon fill="#000000" stroke="#000000" points="638.2279,-1989.5987 641.2813,-1979.4534 632.5677,-1985.4802 638.2279,-1989.5987"/>
</g>
<!-- n770 -->
<g id="node55" class="node">
<title>n770</title>
<ellipse fill="#00fa9a" stroke="#000000" cx="971.5026" cy="-1847.21" rx="162.6155" ry="29.3315"/>
<text text-anchor="middle" x="971.5026" y="-1851.41" font-family="Times,serif" font-size="14.00" fill="#000000">21-770</text>
<text text-anchor="middle" x="971.5026" y="-1834.61" font-family="Times,serif" font-size="14.00" fill="#000000">Introduction to Continuum Mechanics</text>
</g>
<!-- n373&#45;&gt;n770 -->
<g id="edge61" class="edge">
<title>n373-&gt;n770</title>
<path fill="none" stroke="#000000" d="M668.0449,-2016.9496C679.2191,-2013.7466 690.677,-2010.4892 701.5026,-2007.457 747.1836,-1994.6618 764.7778,-2005.3877 804.5026,-1979.457 836.48,-1958.5835 829.4927,-1937.4587 858.5026,-1912.6257 872.6692,-1900.4988 889.4,-1889.4107 905.584,-1879.946"/>
<polygon fill="#000000" stroke="#000000" points="907.5485,-1882.8548 914.4991,-1874.8586 904.0791,-1876.7751 907.5485,-1882.8548"/>
</g>
<!-- n456 -->
<g id="node16" class="node">
<title>n456</title>
<ellipse fill="none" stroke="#000000" cx="1316.5026" cy="-1942.0413" rx="128.2715" ry="29.3315"/>
<text text-anchor="middle" x="1316.5026" y="-1946.2413" font-family="Times,serif" font-size="14.00" fill="#000000">21-456</text>
<text text-anchor="middle" x="1316.5026" y="-1929.4413" font-family="Times,serif" font-size="14.00" fill="#000000">Intermediate Real Analysis II</text>
</g>
<!-- n455&#45;&gt;n456 -->
<g id="edge15" class="edge">
<title>n455-&gt;n456</title>
<path fill="none" stroke="#000000" d="M1157.3454,-2010.9595C1185.1146,-1998.9349 1218.2895,-1984.5695 1247.1469,-1972.0737"/>
<polygon fill="#000000" stroke="#000000" points="1248.5663,-1975.2732 1256.3521,-1968.0877 1245.7847,-1968.8496 1248.5663,-1975.2732"/>
</g>
<!-- n371 -->
<g id="node19" class="node">
<title>n371</title>
<ellipse fill="#afeeee" stroke="#000000" cx="1027.5026" cy="-1942.0413" rx="143.0523" ry="29.3315"/>
<text text-anchor="middle" x="1027.5026" y="-1946.2413" font-family="Times,serif" font-size="14.00" fill="#000000">21-371</text>
<text text-anchor="middle" x="1027.5026" y="-1929.4413" font-family="Times,serif" font-size="14.00" fill="#000000">Functions of a Complex Variable</text>
</g>
<!-- n455&#45;&gt;n371 -->
<g id="edge19" class="edge">
<title>n455-&gt;n371</title>
<path fill="none" stroke="#000000" d="M1075.9292,-2007.6463C1069.3423,-1998.7229 1062.0077,-1988.7865 1055.0798,-1979.401"/>
<polygon fill="#000000" stroke="#000000" points="1057.8802,-1977.3013 1049.1254,-1971.3344 1052.2483,-1981.4585 1057.8802,-1977.3013"/>
</g>
<!-- n455&#45;&gt;n465 -->
<g id="edge51" class="edge">
<title>n455-&gt;n465</title>
<path fill="none" stroke="#000000" d="M1006.2603,-2016.7033C949.332,-2004.1192 874.871,-1987.6595 810.3533,-1973.3977"/>
<polygon fill="#000000" stroke="#000000" points="811.0194,-1969.9605 800.4996,-1971.2195 809.5084,-1976.7955 811.0194,-1969.9605"/>
</g>
<!-- n455&#45;&gt;n770 -->
<g id="edge60" class="edge">
<title>n455-&gt;n770</title>
<path fill="none" stroke="#000000" d="M1007.8433,-2016.3284C948.1386,-2002.2189 879.8439,-1985.0639 875.5026,-1979.457 857.3182,-1955.9712 861.6201,-1938.8846 875.5026,-1912.6257 882.1397,-1900.0717 892.3879,-1889.4749 903.7588,-1880.7084"/>
<polygon fill="#000000" stroke="#000000" points="906.1197,-1883.322 912.2015,-1874.6466 902.0371,-1877.6359 906.1197,-1883.322"/>
</g>
<!-- n360 -->
<g id="node18" class="node">
<title>n360</title>
<ellipse fill="#afeeee" stroke="#000000" cx="1346.5026" cy="-1847.21" rx="194.196" ry="29.3315"/>
<text text-anchor="middle" x="1346.5026" y="-1851.41" font-family="Times,serif" font-size="14.00" fill="#000000">21-360</text>
<text text-anchor="middle" x="1346.5026" y="-1834.61" font-family="Times,serif" font-size="14.00" fill="#000000">Differential Geometry of Curves and Surfaces</text>
</g>
<!-- n456&#45;&gt;n360 -->
<g id="edge18" class="edge">
<title>n456-&gt;n360</title>
<path fill="none" stroke="#000000" d="M1325.8304,-1912.5559C1328.4548,-1904.2601 1331.3508,-1895.1055 1334.1236,-1886.3407"/>
<polygon fill="#000000" stroke="#000000" points="1337.5014,-1887.2672 1337.1807,-1876.6772 1330.8274,-1885.1558 1337.5014,-1887.2672"/>
</g>
<!-- n456&#45;&gt;n770 -->
<g id="edge62" class="edge">
<title>n456-&gt;n770</title>
<path fill="none" stroke="#000000" d="M1234.3049,-1919.4474C1185.2487,-1905.9631 1122.6233,-1888.7491 1070.8122,-1874.5076"/>
<polygon fill="#000000" stroke="#000000" points="1071.506,-1871.0685 1060.936,-1871.7929 1069.6507,-1877.8182 1071.506,-1871.0685"/>
</g>
<!-- n301&#45;&gt;n737 -->
<g id="edge57" class="edge">
<title>n301-&gt;n737</title>
<path fill="none" stroke="#000000" d="M684.6698,-2119.9007C711.3217,-2104.9321 746.1082,-2085.3948 775.2409,-2069.0328"/>
<polygon fill="#000000" stroke="#000000" points="777.0802,-2072.0141 784.0852,-2064.0655 773.6523,-2065.9108 777.0802,-2072.0141"/>
</g>
<!-- n621 -->
<g id="node27" class="node">
<title>n621</title>
<ellipse fill="#afeeee" stroke="#000000" cx="214.5026" cy="-2143.5833" rx="156.9769" ry="29.3315"/>
<text text-anchor="middle" x="214.5026" y="-2147.7833" font-family="Times,serif" font-size="14.00" fill="#000000">21-621</text>
<text text-anchor="middle" x="214.5026" y="-2130.9833" font-family="Times,serif" font-size="14.00" fill="#000000">Introduction to Lebesgue Integration</text>
</g>
<!-- n620&#45;&gt;n621 -->
<g id="edge30" class="edge">
<title>n620-&gt;n621</title>
<path fill="none" stroke="#000000" d="M412.7797,-2229.5925C376.8733,-2214.017 327.0607,-2192.4091 286.347,-2174.7482"/>
<polygon fill="#000000" stroke="#000000" points="287.5763,-2171.4664 277.0094,-2170.6977 284.7906,-2177.8882 287.5763,-2171.4664"/>
</g>
<!-- n602 -->
<g id="node29" class="node">
<title>n602</title>
<ellipse fill="#afeeee" stroke="#000000" cx="668.5026" cy="-1847.21" rx="122.2643" ry="29.3315"/>
<text text-anchor="middle" x="668.5026" y="-1851.41" font-family="Times,serif" font-size="14.00" fill="#000000">21-602</text>
<text text-anchor="middle" x="668.5026" y="-1834.61" font-family="Times,serif" font-size="14.00" fill="#000000">Introduction to Set Theory I</text>
</g>
<!-- n465&#45;&gt;n602 -->
<!-- n603 -->
<g id="node30" class="node">
<title>n603</title>
<ellipse fill="#afeeee" stroke="#000000" cx="668.5026" cy="-1752.3788" rx="73.9808" ry="29.3315"/>
<text text-anchor="middle" x="668.5026" y="-1756.5788" font-family="Times,serif" font-size="14.00" fill="#000000">21-603</text>
<text text-anchor="middle" x="668.5026" y="-1739.7788" font-family="Times,serif" font-size="14.00" fill="#000000">Model Theory I</text>
</g>
<!-- n602&#45;&gt;n603 -->
<!-- n702 -->
<g id="node49" class="node">
<title>n702</title>
<ellipse fill="#00fa9a" stroke="#000000" cx="872.5026" cy="-1752.3788" rx="64.1799" ry="29.3315"/>
<text text-anchor="middle" x="872.5026" y="-1756.5788" font-family="Times,serif" font-size="14.00" fill="#000000">21-702</text>
<text text-anchor="middle" x="872.5026" y="-1739.7788" font-family="Times,serif" font-size="14.00" fill="#000000">Set Theory II</text>
</g>
<!-- n602&#45;&gt;n702 -->
<g id="edge53" class="edge">
<title>n602-&gt;n702</title>
<path fill="none" stroke="#000000" d="M724.7866,-1821.0459C753.9451,-1807.4913 789.3882,-1791.0153 818.2468,-1777.6001"/>
<polygon fill="#000000" stroke="#000000" points="819.7761,-1780.7489 827.3688,-1773.3596 816.8253,-1774.4012 819.7761,-1780.7489"/>
</g>
<!-- n604 -->
<g id="node31" class="node">
<title>n604</title>
<ellipse fill="#00fa9a" stroke="#000000" cx="647.5026" cy="-1657.5475" rx="144.1993" ry="29.3315"/>
<text text-anchor="middle" x="647.5026" y="-1661.7475" font-family="Times,serif" font-size="14.00" fill="#000000">21-604</text>
<text text-anchor="middle" x="647.5026" y="-1644.9475" font-family="Times,serif" font-size="14.00" fill="#000000">Introduction to Recursion Theory</text>
</g>
<!-- n603&#45;&gt;n604 -->
<!-- n703 -->
<g id="node50" class="node">
<title>n703</title>
<ellipse fill="#00fa9a" stroke="#000000" cx="887.5026" cy="-1657.5475" rx="77.0724" ry="29.3315"/>
<text text-anchor="middle" x="887.5026" y="-1661.7475" font-family="Times,serif" font-size="14.00" fill="#000000">21-703</text>
<text text-anchor="middle" x="887.5026" y="-1644.9475" font-family="Times,serif" font-size="14.00" fill="#000000">Model Theory II</text>
</g>
<!-- n603&#45;&gt;n703 -->
<g id="edge54" class="edge">
<title>n603-&gt;n703</title>
<path fill="none" stroke="#000000" d="M718.7457,-1730.6225C750.9505,-1716.6772 792.9413,-1698.4944 826.9796,-1683.7551"/>
<polygon fill="#000000" stroke="#000000" points="828.5687,-1686.8811 836.3545,-1679.6956 825.7871,-1680.4575 828.5687,-1686.8811"/>
</g>
<!-- n610 -->
<g id="node32" class="node">
<title>n610</title>
<ellipse fill="#afeeee" stroke="#000000" cx="646.5026" cy="-1562.7162" rx="48.9309" ry="29.3315"/>
<text text-anchor="middle" x="646.5026" y="-1566.9162" font-family="Times,serif" font-size="14.00" fill="#000000">21-610</text>
<text text-anchor="middle" x="646.5026" y="-1550.1162" font-family="Times,serif" font-size="14.00" fill="#000000">Algebra I</text>
</g>
<!-- n604&#45;&gt;n610 -->
<!-- n623 -->
<g id="node33" class="node">
<title>n623</title>
<ellipse fill="#00fa9a" stroke="#000000" cx="645.5026" cy="-1467.8849" rx="84.9573" ry="29.3315"/>
<text text-anchor="middle" x="645.5026" y="-1472.0849" font-family="Times,serif" font-size="14.00" fill="#000000">21-623</text>
<text text-anchor="middle" x="645.5026" y="-1455.2849" font-family="Times,serif" font-size="14.00" fill="#000000">Complex Analysis</text>
</g>
<!-- n610&#45;&gt;n623 -->
<!-- n624 -->
<g id="node34" class="node">
<title>n624</title>
<ellipse fill="#00fa9a" stroke="#000000" cx="643.5026" cy="-1373.0536" rx="103.2533" ry="29.3315"/>
<text text-anchor="middle" x="643.5026" y="-1377.2536" font-family="Times,serif" font-size="14.00" fill="#000000">21-624</text>
<text text-anchor="middle" x="643.5026" y="-1360.4536" font-family="Times,serif" font-size="14.00" fill="#000000">Descriptive Set Theory</text>
</g>
<!-- n623&#45;&gt;n624 -->
<!-- n630 -->
<g id="node35" class="node">
<title>n630</title>
<ellipse fill="#afeeee" stroke="#000000" cx="639.5026" cy="-1278.2223" rx="137.5184" ry="29.3315"/>
<text text-anchor="middle" x="639.5026" y="-1282.4223" font-family="Times,serif" font-size="14.00" fill="#000000">21-630</text>
<text text-anchor="middle" x="639.5026" y="-1265.6223" font-family="Times,serif" font-size="14.00" fill="#000000">Ordinary Differential Equations</text>
</g>
<!-- n624&#45;&gt;n630 -->
<!-- n632 -->
<g id="node36" class="node">
<title>n632</title>
<ellipse fill="#afeeee" stroke="#000000" cx="631.5026" cy="-1183.3911" rx="161.2793" ry="29.3315"/>
<text text-anchor="middle" x="631.5026" y="-1187.5911" font-family="Times,serif" font-size="14.00" fill="#000000">21-632</text>
<text text-anchor="middle" x="631.5026" y="-1170.7911" font-family="Times,serif" font-size="14.00" fill="#000000">Introduction to Differential Equations</text>
</g>
<!-- n630&#45;&gt;n632 -->
<!-- n640 -->
<g id="node37" class="node">
<title>n640</title>
<ellipse fill="#afeeee" stroke="#000000" cx="632.5026" cy="-1088.5598" rx="152.2255" ry="29.3315"/>
<text text-anchor="middle" x="632.5026" y="-1092.7598" font-family="Times,serif" font-size="14.00" fill="#000000">21-640</text>
<text text-anchor="middle" x="632.5026" y="-1075.9598" font-family="Times,serif" font-size="14.00" fill="#000000">Introduction to Functional Analysis</text>
</g>
<!-- n632&#45;&gt;n640 -->
<!-- n651 -->
<g id="node38" class="node">
<title>n651</title>
<ellipse fill="#afeeee" stroke="#000000" cx="633.5026" cy="-993.7285" rx="83.7235" ry="29.3315"/>
<text text-anchor="middle" x="633.5026" y="-997.9285" font-family="Times,serif" font-size="14.00" fill="#000000">21-651</text>
<text text-anchor="middle" x="633.5026" y="-981.1285" font-family="Times,serif" font-size="14.00" fill="#000000">General Topology</text>
</g>
<!-- n640&#45;&gt;n651 -->
<!-- n660 -->
<g id="node39" class="node">
<title>n660</title>
<ellipse fill="#afeeee" stroke="#000000" cx="633.5026" cy="-898.8972" rx="157.6338" ry="29.3315"/>
<text text-anchor="middle" x="633.5026" y="-903.0972" font-family="Times,serif" font-size="14.00" fill="#000000">21-660</text>
<text text-anchor="middle" x="633.5026" y="-886.2972" font-family="Times,serif" font-size="14.00" fill="#000000">Introduction to Numerical Analysis I</text>
</g>
<!-- n651&#45;&gt;n660 -->
<!-- n752 -->
<g id="node54" class="node">
<title>n752</title>
<ellipse fill="#00fa9a" stroke="#000000" cx="900.5026" cy="-898.8972" rx="91.1254" ry="29.3315"/>
<text text-anchor="middle" x="900.5026" y="-903.0972" font-family="Times,serif" font-size="14.00" fill="#000000">21-752</text>
<text text-anchor="middle" x="900.5026" y="-886.2972" font-family="Times,serif" font-size="14.00" fill="#000000">Algebraic Topology</text>
</g>
<!-- n651&#45;&gt;n752 -->
<g id="edge59" class="edge">
<title>n651-&gt;n752</title>
<path fill="none" stroke="#000000" d="M692.4275,-972.8C732.8324,-958.4492 786.6564,-939.3323 829.4388,-924.1372"/>
<polygon fill="#000000" stroke="#000000" points="830.6938,-927.4057 838.9456,-920.7606 828.3509,-920.8094 830.6938,-927.4057"/>
</g>
<!-- n701 -->
<g id="node40" class="node">
<title>n701</title>
<ellipse fill="#afeeee" stroke="#000000" cx="655.5026" cy="-804.0659" rx="97.7935" ry="29.3315"/>
<text text-anchor="middle" x="655.5026" y="-808.2659" font-family="Times,serif" font-size="14.00" fill="#000000">21-701</text>
<text text-anchor="middle" x="655.5026" y="-791.4659" font-family="Times,serif" font-size="14.00" fill="#000000">Discrete Mathematics</text>
</g>
<!-- n660&#45;&gt;n701 -->
<!-- n720 -->
<g id="node41" class="node">
<title>n720</title>
<ellipse fill="#afeeee" stroke="#000000" cx="677.5026" cy="-709.2346" rx="108.1349" ry="29.3315"/>
<text text-anchor="middle" x="677.5026" y="-713.4346" font-family="Times,serif" font-size="14.00" fill="#000000">21-720</text>
<text text-anchor="middle" x="677.5026" y="-696.6346" font-family="Times,serif" font-size="14.00" fill="#000000">Measure and Integration</text>
</g>
<!-- n701&#45;&gt;n720 -->
<!-- n724 -->
<g id="node42" class="node">
<title>n724</title>
<ellipse fill="#00fa9a" stroke="#000000" cx="664.5026" cy="-614.4033" rx="73.9449" ry="29.3315"/>
<text text-anchor="middle" x="664.5026" y="-618.6033" font-family="Times,serif" font-size="14.00" fill="#000000">21-724</text>
<text text-anchor="middle" x="664.5026" y="-601.8033" font-family="Times,serif" font-size="14.00" fill="#000000">Sobolev Spaces</text>
</g>
<!-- n720&#45;&gt;n724 -->
<!-- n721 -->
<g id="node51" class="node">
<title>n721</title>
<ellipse fill="#afeeee" stroke="#000000" cx="863.5026" cy="-614.4033" rx="55.1207" ry="29.3315"/>
<text text-anchor="middle" x="863.5026" y="-618.6033" font-family="Times,serif" font-size="14.00" fill="#000000">21-721</text>
<text text-anchor="middle" x="863.5026" y="-601.8033" font-family="Times,serif" font-size="14.00" fill="#000000">Probability</text>
</g>
<!-- n720&#45;&gt;n721 -->
<g id="edge55" class="edge">
<title>n720-&gt;n721</title>
<path fill="none" stroke="#000000" d="M728.8203,-683.0705C755.5606,-669.4371 788.0978,-652.8482 814.4924,-639.391"/>
<polygon fill="#000000" stroke="#000000" points="816.2336,-642.4319 823.5528,-634.7716 813.0541,-636.1957 816.2336,-642.4319"/>
</g>
<!-- n723 -->
<g id="node52" class="node">
<title>n723</title>
<ellipse fill="#afeeee" stroke="#000000" cx="1045.5026" cy="-614.4033" rx="109.3526" ry="29.3315"/>
<text text-anchor="middle" x="1045.5026" y="-618.6033" font-family="Times,serif" font-size="14.00" fill="#000000">21-723</text>
<text text-anchor="middle" x="1045.5026" y="-601.8033" font-family="Times,serif" font-size="14.00" fill="#000000">Advanced Real Analysis</text>
</g>
<!-- n720&#45;&gt;n723 -->
<g id="edge56" class="edge">
<title>n720-&gt;n723</title>
<path fill="none" stroke="#000000" d="M755.9965,-689.0073C814.784,-673.8581 895.2737,-653.1164 956.4629,-637.3483"/>
<polygon fill="#000000" stroke="#000000" points="957.6854,-640.6477 966.4956,-634.763 955.9386,-633.8692 957.6854,-640.6477"/>
</g>
<!-- n732 -->
<g id="node43" class="node">
<title>n732</title>
<ellipse fill="#00fa9a" stroke="#000000" cx="658.5026" cy="-519.5721" rx="133.7758" ry="29.3315"/>
<text text-anchor="middle" x="658.5026" y="-523.7721" font-family="Times,serif" font-size="14.00" fill="#000000">21-732</text>
<text text-anchor="middle" x="658.5026" y="-506.9721" font-family="Times,serif" font-size="14.00" fill="#000000">Partial Differential Equations I</text>
</g>
<!-- n724&#45;&gt;n732 -->
<!-- n738 -->
<g id="node44" class="node">
<title>n738</title>
<ellipse fill="#afeeee" stroke="#000000" cx="658.5026" cy="-424.7408" rx="108.225" ry="29.3315"/>
<text text-anchor="middle" x="658.5026" y="-428.9408" font-family="Times,serif" font-size="14.00" fill="#000000">21-738</text>
<text text-anchor="middle" x="658.5026" y="-412.1408" font-family="Times,serif" font-size="14.00" fill="#000000">Extremal Combinatorics</text>
</g>
<!-- n732&#45;&gt;n738 -->
<!-- n832 -->
<g id="node57" class="node">
<title>n832</title>
<ellipse fill="#ffe4b5" stroke="#000000" cx="945.5026" cy="-424.7408" rx="136.8667" ry="29.3315"/>
<text text-anchor="middle" x="945.5026" y="-428.9408" font-family="Times,serif" font-size="14.00" fill="#000000">21-832</text>
<text text-anchor="middle" x="945.5026" y="-412.1408" font-family="Times,serif" font-size="14.00" fill="#000000">Partial Differential Equations II</text>
</g>
<!-- n732&#45;&gt;n832 -->
<g id="edge64" class="edge">
<title>n732-&gt;n832</title>
<path fill="none" stroke="#000000" d="M732.7855,-495.0273C772.0714,-482.0464 820.4588,-466.0581 861.1532,-452.6117"/>
<polygon fill="#000000" stroke="#000000" points="862.3865,-455.8904 870.7835,-449.4297 860.1903,-449.2438 862.3865,-455.8904"/>
</g>
<!-- n742 -->
<g id="node45" class="node">
<title>n742</title>
<ellipse fill="#00fa9a" stroke="#000000" cx="658.5026" cy="-329.9095" rx="102.6623" ry="29.3315"/>
<text text-anchor="middle" x="658.5026" y="-334.1095" font-family="Times,serif" font-size="14.00" fill="#000000">21-742</text>
<text text-anchor="middle" x="658.5026" y="-317.3095" font-family="Times,serif" font-size="14.00" fill="#000000">Calculus Of Variations</text>
</g>
<!-- n738&#45;&gt;n742 -->
<!-- n759 -->
<g id="node46" class="node">
<title>n759</title>
<ellipse fill="#00fa9a" stroke="#000000" cx="658.5026" cy="-235.0782" rx="99.582" ry="29.3315"/>
<text text-anchor="middle" x="658.5026" y="-239.2782" font-family="Times,serif" font-size="14.00" fill="#000000">21-759</text>
<text text-anchor="middle" x="658.5026" y="-222.4782" font-family="Times,serif" font-size="14.00" fill="#000000">Differential Geometry</text>
</g>
<!-- n742&#45;&gt;n759 -->
<!-- n762 -->
<g id="node47" class="node">
<title>n762</title>
<ellipse fill="#00fa9a" stroke="#000000" cx="658.5026" cy="-140.2469" rx="106.9946" ry="29.3315"/>
<text text-anchor="middle" x="658.5026" y="-144.4469" font-family="Times,serif" font-size="14.00" fill="#000000">21-762</text>
<text text-anchor="middle" x="658.5026" y="-127.6469" font-family="Times,serif" font-size="14.00" fill="#000000">Finite Element Methods</text>
</g>
<!-- n759&#45;&gt;n762 -->
<!-- n880 -->
<g id="node48" class="node">
<title>n880</title>
<ellipse fill="#ffe4b5" stroke="#000000" cx="658.5026" cy="-45.4156" rx="89.2397" ry="29.3315"/>
<text text-anchor="middle" x="658.5026" y="-49.6156" font-family="Times,serif" font-size="14.00" fill="#000000">21-880</text>
<text text-anchor="middle" x="658.5026" y="-32.8156" font-family="Times,serif" font-size="14.00" fill="#000000">Stochastic Calculus</text>
</g>
<!-- n762&#45;&gt;n880 -->
<!-- n803 -->
<g id="node56" class="node">
<title>n803</title>
<ellipse fill="#ffe4b5" stroke="#000000" cx="889.5026" cy="-1562.7162" rx="80.663" ry="29.3315"/>
<text text-anchor="middle" x="889.5026" y="-1566.9162" font-family="Times,serif" font-size="14.00" fill="#000000">21-803</text>
<text text-anchor="middle" x="889.5026" y="-1550.1162" font-family="Times,serif" font-size="14.00" fill="#000000">Model Theory III</text>
</g>
<!-- n703&#45;&gt;n803 -->
<g id="edge63" class="edge">
<title>n703-&gt;n803</title>
<path fill="none" stroke="#000000" d="M888.1245,-1628.0621C888.2957,-1619.9447 888.4842,-1611.005 888.6654,-1602.4129"/>
<polygon fill="#000000" stroke="#000000" points="892.1694,-1602.2549 888.8812,-1592.1833 885.171,-1602.1073 892.1694,-1602.2549"/>
</g>
</g>
</svg>